<?xml version="1.0" encoding="iso-8859-1"?>
<!-- Generator: Adobe Illustrator 30.1.0, SVG Export Plug-In . SVG Version: 9.03 Build 0)  -->
<svg version="1.1" id="a" xmlns="http://www.w3.org/2000/svg" xmlns:xlink="http://www.w3.org/1999/xlink" x="0px" y="0px"
	 width="540px" height="540px" viewBox="0 0 540 540" enable-background="new 0 0 540 540" xml:space="preserve">
<path fill="#FFFFFF" d="M1.47,277.558c26.724,28.744,67.095,43.108,105.207,48.141c36.748,4.855,76.374,0.209,110.803-13.639
	c30.125-12.122,56.329-31.391,84.224-47.647c17.078-9.952,34.792-18.8,53.23-25.965c19.21-7.463,38.931-14.219,59.657-15.271
	c40.823-2.071,88.576,10.417,116.472,41.961c4.552,5.149,12.062-2.412,7.536-7.536c-24.819-28.066-64.192-41.334-100.587-44.591
	c-41.109-3.67-80.214,10.672-116.583,28.646c-30.214,14.93-57.258,35.159-87.012,50.848
	c-32.763,17.279-69.234,24.934-106.217,24.239c-42.097-0.788-89.889-15.195-119.196-46.722
	C4.324,264.993-3.199,272.537,1.47,277.558"/>
</svg>
