<?xml version="1.0" encoding="UTF-8"?>
<svg id="a" data-name="Layer 1" xmlns="http://www.w3.org/2000/svg" width="540" height="540" viewBox="0 0 540 540">
  <path d="M1.47,277.558c26.724,28.744,67.095,43.108,105.207,48.141,36.748,4.855,76.374.209,110.803-13.639,30.125-12.122,56.329-31.391,84.224-47.647,17.078-9.952,34.792-18.8,53.23-25.965,19.21-7.463,38.931-14.219,59.657-15.271,40.823-2.071,88.576,10.417,116.472,41.961,4.552,5.149,12.062-2.412,7.536-7.536-24.819-28.066-64.192-41.334-100.587-44.591-41.109-3.67-80.214,10.672-116.583,28.646-30.214,14.93-57.258,35.159-87.012,50.848-32.763,17.279-69.234,24.934-106.217,24.239-42.097-.788-89.889-15.195-119.196-46.722-4.68-5.029-12.203,2.515-7.535,7.536"/>
</svg>