<?xml version="1.0" encoding="UTF-8"?>
<svg id="a" data-name="Layer 1" xmlns="http://www.w3.org/2000/svg" width="540" height="540" viewBox="0 0 540 540">
  <path d="M155.679,329.499c-8.09,0-15.968-2.146-21.7-6.647-10.956-9.91-32.276-12.018-44.886-4.552-7.825,3.876-17.979,4.061-28.057.605-10.066-3.452-17.969-9.835-21.681-17.503-5.169-14.009-21.882-26.065-36.607-26.586-1.573-.055-2.801-1.377-2.746-2.948.057-1.571,1.426-2.784,2.948-2.746,16.797.596,35.868,14.357,41.642,30.054,2.902,5.963,9.782,11.418,18.294,14.336,8.518,2.931,17.301,2.839,23.495-.218,14.565-8.634,38.614-6.253,51.269,5.203,11.47,8.995,34.55,6.374,43.956-5.144,9.547-14.013,32.366-21.992,48.693-16.86,13.881,3.187,34.071-8.474,38.35-22.374,5.138-16.747,27.803-30.201,44.913-26.745,14.118,3.532,34.346-5.694,40.943-18.611,4.164-7.374,12.596-13.471,22.609-16.407,10.267-3.011,20.396-2.331,27.797,1.852,11.939,8.919,33.359,9.297,45.249,1.012,7.706-4.329,17.847-4.964,28.072-1.915,10.232,3.053,18.38,9.167,22.357,16.772,5.297,13.853,22.036,25.859,36.691,26.514,1.571.071,2.788,1.403,2.717,2.973-.067,1.575-1.327,2.772-2.973,2.721-16.967-.76-35.639-14.164-41.621-29.878-3.084-5.85-10.162-11.065-18.798-13.639-8.625-2.578-17.383-2.095-23.428,1.272-13.664,9.553-37.783,9.112-51.378-1.075-5.667-3.179-14.41-3.683-23.083-1.142-8.623,2.528-15.798,7.626-19.195,13.639-7.865,15.395-30.392,25.708-47.223,21.467-14.208-2.91-33.901,8.835-38.203,22.865-5.22,16.961-28.072,30.155-45.291,26.191-14.126-4.413-34.361,2.646-42.637,14.773-6.757,8.289-18.842,12.741-30.487,12.741Z"/>
</svg>