<?xml version="1.0" encoding="UTF-8"?>
<svg id="a" data-name="Layer 1" xmlns="http://www.w3.org/2000/svg" width="540" height="540" viewBox="0 0 540 540">
  <path d="M129.008,334.01l-4.706-.213,1.134-25.164,4.706.213-1.134,25.164ZM137.935,333.965l-.549-25.184,4.711-.107.549,25.184-4.711.107ZM151.373,333.407l-1.863-25.119,4.698-.348,1.863,25.119-4.698.348ZM115.436,333.157l-4.682-.508,2.737-25.041,4.682.508-2.737,25.041ZM164.835,332.239l-3.286-24.971,4.67-.615,3.286,24.971-4.67.615ZM101.989,331.431l-4.641-.795,4.249-24.823,4.641.795-4.249,24.823ZM177.993,330.341l-4.272-24.819,4.641-.795,4.272,24.819-4.641.795ZM88.675,328.894l-4.588-1.074,5.744-24.524,4.588,1.074-5.744,24.524ZM191.292,327.676l-5.789-24.516,4.583-1.082,5.789,24.516-4.583,1.082ZM75.501,325.573l-4.51-1.361,7.275-24.114,4.51,1.361-7.275,24.114ZM204.655,324.122l-7.779-23.954,4.481-1.451,7.779,23.954-4.481,1.451ZM62.499,321.44l-4.407-1.664,8.884-23.573,4.407,1.664-8.884,23.573ZM217.46,319.731l-9.181-23.454,4.387-1.714,9.181,23.454-4.387,1.714ZM50.03,316.509l-4.321-1.869,10.017-23.11,4.321,1.869-10.017,23.11ZM230.103,314.5l-10.811-22.749,4.255-2.025,10.811,22.749-4.255,2.025ZM37.563,310.589l-4.157-2.214,11.84-22.232,4.157,2.214-11.84,22.232ZM242.091,308.625l-11.801-22.253,4.161-2.206,11.801,22.253-4.161,2.206ZM25.49,303.611l-3.936-2.583,13.824-21.056,3.936,2.583-13.824,21.056ZM253.785,302.205l-12.758-21.716,4.063-2.386,12.758,21.716-4.063,2.386ZM264.989,295.518l-13.195-21.458,4.014-2.468,13.195,21.458-4.014,2.468ZM13.976,295.457l-3.645-2.985,15.956-19.494,3.645,2.985-15.956,19.494ZM275.964,288.688l-13.412-21.314,3.985-2.509,13.412,21.314-3.985,2.509ZM3.255,285.962l-3.255-3.403,18.198-17.411,3.255,3.403-18.198,17.411ZM286.75,281.92l-13.316-21.384,3.997-2.493,13.316,21.384-3.997,2.493ZM297.424,275.336l-12.877-21.646,4.046-2.411,12.877,21.646-4.046,2.411ZM521.453,270.146l-3.185-3.468,18.547-17.046,3.185,3.468-18.547,17.046ZM308.181,269.002l-12.334-21.958,4.108-2.304,12.334,21.958-4.108,2.304ZM319.035,263.012l-11.645-22.335,4.178-2.181,11.645,22.335-4.178,2.181ZM513.752,262.385l-3.661-2.96,15.839-19.588,3.661,2.96-15.839,19.588ZM330.024,257.392l-10.827-22.741,4.251-2.025,10.827,22.741-4.251,2.025ZM504.436,255.301l-3.903-2.632,14.088-20.875,3.903,2.632-14.088,20.875ZM341.327,252.132l-10.235-23.011,4.305-1.91,10.235,23.011-4.305,1.91ZM494.748,249.405l-4.182-2.173,11.606-22.355,4.182,2.173-11.606,22.355ZM352.63,247.339l-9.282-23.417,4.378-1.738,9.282,23.417-4.378,1.738ZM484.413,244.314l-4.378-1.738,9.288-23.413,4.378,1.738-9.288,23.413ZM364.076,242.932l-8.292-23.786,4.448-1.55,8.292,23.786-4.448,1.55ZM473.192,240.029l-4.477-1.459,7.812-23.946,4.477,1.459-7.812,23.946ZM375.844,238.906l-7.615-24.012,4.489-1.427,7.615,24.012-4.489,1.427ZM461.658,236.573l-4.559-1.189,6.373-24.368,4.559,1.189-6.373,24.368ZM387.565,235.315l-6.586-24.311,4.547-1.23,6.586,24.311-4.547,1.23ZM450.252,233.995l-4.645-.787,4.229-24.832,4.645.787-4.229,24.832ZM398.583,232.855l-3.649-24.922,4.661-.681,3.649,24.922-4.661.681ZM438.32,232.216l-4.682-.517,2.784-25.037,4.682.517-2.784,25.037ZM409.99,231.469l-1.054-25.164,4.706-.197,1.054,25.164-4.706.197ZM426.694,231.273l-4.711-.098.537-25.184,4.711.098-.537,25.184Z"/>
</svg>