<?xml version="1.0" encoding="UTF-8"?>
<svg id="a" data-name="Layer 1" xmlns="http://www.w3.org/2000/svg" width="540" height="540" viewBox="0 0 540 540">
  <path d="M103.527,329.115c-18.236,4.869-67.022,10.716-72.723-18.236-7.177-36.453,78.956-46.159,99.739-47.757,75.308-5.791,148.807,18.372,222.692,28.609,50.215,6.951,107.034,11.684,152.135-16.976,18.682-11.877,37.732-32.745,34.207-56.584-4.996-33.779-39.706-40.566-68.461-40.744-19.665-.122-19.684,30.428,0,30.55,11.374.07,34.479-2.021,38.009,12.864,2.021,8.516-6.322,17.202-11.915,22.165-9.814,8.723-22.621,13.875-35.076,17.423-25.399,7.243-50.3,6.97-76.366,4.587-74.641-6.82-147.017-31.067-222.175-33.149-47.621-1.316-156.769,5.936-163.279,70.961-5.861,58.557,71.694,66.327,111.334,55.747,18.979-5.067,10.928-34.545-8.122-29.46"/>
  <path d="M134.381,333.531c0,13.461-10.913,24.374-24.374,24.374s-24.374-10.913-24.374-24.374,10.914-24.374,24.374-24.374,24.374,10.913,24.374,24.374"/>
  <path d="M492.665,202.144c0,13.461-10.913,24.374-24.374,24.374s-24.374-10.913-24.374-24.374,10.914-24.374,24.374-24.374,24.374,10.913,24.374,24.374"/>
</svg>