<?xml version="1.0" encoding="iso-8859-1"?>
<!-- Generator: Adobe Illustrator 30.1.0, SVG Export Plug-In . SVG Version: 9.03 Build 0)  -->
<svg version="1.1" id="a" xmlns="http://www.w3.org/2000/svg" xmlns:xlink="http://www.w3.org/1999/xlink" x="0px" y="0px"
	 width="540px" height="540px" viewBox="0 0 540 540" enable-background="new 0 0 540 540" xml:space="preserve">
<path fill="#FFFFFF" d="M103.527,329.115c-18.236,4.869-67.022,10.716-72.723-18.236c-7.177-36.453,78.956-46.159,99.739-47.757
	c75.308-5.791,148.807,18.372,222.692,28.609c50.215,6.951,107.034,11.684,152.135-16.976
	c18.682-11.877,37.732-32.745,34.207-56.584c-4.996-33.779-39.706-40.566-68.461-40.744c-19.665-0.122-19.684,30.428,0,30.55
	c11.374,0.07,34.479-2.021,38.009,12.864c2.021,8.516-6.322,17.202-11.915,22.165c-9.814,8.723-22.621,13.875-35.076,17.423
	c-25.399,7.243-50.3,6.97-76.366,4.587c-74.641-6.82-147.017-31.067-222.175-33.149c-47.621-1.316-156.769,5.936-163.279,70.961
	c-5.861,58.557,71.694,66.327,111.334,55.747C130.627,353.508,122.576,324.03,103.527,329.115"/>
<path fill="#FFFFFF" d="M134.381,333.531c0,13.461-10.913,24.374-24.374,24.374s-24.374-10.913-24.374-24.374
	s10.914-24.374,24.374-24.374S134.381,320.07,134.381,333.531"/>
<path fill="#FFFFFF" d="M492.665,202.144c0,13.461-10.913,24.374-24.374,24.374s-24.374-10.913-24.374-24.374
	s10.914-24.374,24.374-24.374S492.665,188.683,492.665,202.144"/>
</svg>
