<?xml version="1.0" encoding="UTF-8"?>
<svg id="a" data-name="Layer 1" xmlns="http://www.w3.org/2000/svg" width="540" height="540" viewBox="0 0 540 540">
  <path d="M71.738,401.818c-19.001,0-33.066-5.141-42.645-10.597-14.069-8.018-24.727-20.674-27.818-33.029-5.503-22.017,7.46-41.186,26.498-54.405-19.424-7.107-24.96-20.581-26.498-26.721-7.943-31.774,22.594-57.626,54.33-68.2,81.321-27.079,152.254-13.158,227.342,1.576,41.144,8.074,83.687,16.421,130.339,18.527,11.941.507,37.374-.999,60.303-9.017v-.33c.311,0,.623,0,.939-.005,17.732-6.358,33.819-16.654,40.781-32.94,2.714-6.363-.962-15.134-8.036-19.15-9.319-5.289-22.199-5.238-33.623-5.234l-.056-23.798c13.581-.028,30.612-.074,45.434,8.338,17.676,10.04,25.652,31.648,18.169,49.19-5.238,12.252-13.442,21.873-23.203,29.417,1.697.739,3.374,1.576,5.029,2.51,17.681,10.044,25.657,31.653,18.174,49.194-25.843,60.47-123.985,56.743-124.979,56.719-48.423-2.18-91.849-10.704-133.843-18.945-62.167-12.201-117.296-23.017-177.232-12.117-4.216.967-8.25,1.794-12.122,2.491-8.51,1.952-17.128,4.36-25.894,7.279-18.081,6.019-43.324,21.599-38.759,39.847.944,3.774,5.48,11.838,16.51,18.122,10.974,6.261,30.523,11.797,61.214,2.635l6.805,22.803c-14.023,4.183-26.387,5.838-37.156,5.838ZM152.394,274.589c44.049,0,86.587,8.348,130.562,16.979,41.139,8.074,83.682,16.421,130.329,18.527,21.395.93,85.974-4.736,102.023-42.297,2.714-6.363-.962-15.134-8.036-19.15-8.027-4.555-18.694-5.164-28.762-5.229-32.736,10.597-65.699,9.352-66.299,9.319-48.423-2.18-91.849-10.7-133.848-18.945-75.042-14.725-139.862-27.446-215.239-2.347-18.081,6.024-43.324,21.604-38.759,39.847,2.175,8.701,20.191,17.783,60.698,10.518,3.509-.786,7.014-1.501,10.49-2.143.6-.139,1.208-.279,1.822-.423l.019.088c18.713-3.347,36.989-4.746,55-4.746Z"/>
  <path d="M495.444,162.865c0,13.631-11.052,24.683-24.683,24.683s-24.683-11.052-24.683-24.683,11.052-24.683,24.683-24.683,24.683,11.052,24.683,24.683"/>
  <path d="M129.044,371.867c0,13.631-11.052,24.683-24.683,24.683s-24.683-11.052-24.683-24.683,11.052-24.683,24.683-24.683,24.683,11.052,24.683,24.683"/>
</svg>