<?xml version="1.0" encoding="UTF-8"?>
<svg id="a" data-name="Layer 1" xmlns="http://www.w3.org/2000/svg" width="540" height="540" viewBox="0 0 540 540">
  <path d="M29.584,300.742l-4.074-11.249c5.282-1.916,11.187-4.113,17.626-6.552l4.238,11.187c-6.493,2.462-12.453,4.682-17.789,6.614ZM65.045,287.347l-4.324-11.156c5.609-2.173,11.479-4.468,17.567-6.855l4.37,11.14c-6.104,2.396-11.989,4.69-17.614,6.871ZM100.238,273.55l-4.402-11.125,17.544-6.957,4.417,11.125-17.559,6.957ZM135.345,259.614l-4.425-11.117,17.54-6.984,4.425,11.117-17.54,6.984ZM170.421,245.649l-4.425-11.117,17.555-6.972,4.409,11.125-17.54,6.965ZM205.512,231.744l-4.394-11.132,17.579-6.918,4.37,11.14-17.555,6.91ZM240.634,217.963l-4.339-11.148c5.991-2.333,11.88-4.612,17.633-6.824l4.292,11.171c-5.738,2.205-11.611,4.476-17.587,6.801ZM275.835,204.454l-4.23-11.195c6.147-2.322,12.075-4.534,17.739-6.618l4.129,11.234c-5.632,2.068-11.53,4.273-17.637,6.579Z"/>
  <path d="M236.844,330.677l-10.439-5.851c3.252-5.804,6.602-11.572,10.007-17.31l10.291,6.115c-3.358,5.644-6.653,11.327-9.859,17.045ZM256.94,296.754l-10.182-6.287c3.486-5.648,7.007-11.273,10.532-16.878l10.127,6.372c-3.51,5.574-7.007,11.167-10.478,16.792ZM278.001,263.182l-10.12-6.388c3.537-5.605,7.05-11.195,10.517-16.773l10.166,6.31c-3.482,5.609-7.011,11.222-10.564,16.85ZM298.964,229.325l-10.268-6.147c3.4-5.675,6.723-11.343,9.929-17.01l10.416,5.897c-3.26,5.753-6.63,11.506-10.077,17.259Z"/>
  <path d="M245.994,348.018l-4.557-11.062c5.438-2.24,11.374-4.62,17.727-7.12l4.378,11.14c-6.291,2.47-12.165,4.826-17.548,7.042ZM281.21,334.136l-4.269-11.179c5.726-2.185,11.682-4.433,17.816-6.731l4.191,11.21c-6.111,2.283-12.036,4.522-17.739,6.7ZM316.738,320.822l-4.137-11.226c5.851-2.158,11.814-4.347,17.863-6.548l4.098,11.241c-6.034,2.201-11.989,4.382-17.824,6.532ZM352.406,307.812l-4.074-11.249c5.928-2.146,11.9-4.296,17.883-6.446l4.043,11.265c-5.975,2.142-11.939,4.292-17.851,6.431ZM388.148,294.97l-4.028-11.265,17.906-6.388,4.012,11.273-17.89,6.38ZM423.932,282.225l-4.004-11.273,17.914-6.361,3.996,11.28-17.906,6.353ZM459.752,269.507l-4.004-11.273,17.898-6.369,4.02,11.273-17.914,6.369ZM495.568,256.727l-4.047-11.257c6.419-2.31,12.398-4.472,17.851-6.458l4.098,11.241c-5.469,1.994-11.463,4.164-17.902,6.474Z"/>
  <path d="M204.433,367.517l7.907-16.095c1.476-3.007,2.995-5.991,4.542-8.971l5.368,2.789c.506-.234,1.021-.471,1.542-.709l.9,1.979,2.808,1.457c-.382.732-.76,1.468-1.137,2.205l2.392,5.251c-3.155,1.437-5.952,2.762-8.332,3.969l-15.99,8.125ZM1.137,309.475l-1.137-11.911c.584-.055,2.532-.366,7.931-2.045l3.552,11.428c-4.892,1.519-8.18,2.322-10.346,2.528ZM531.037,243.737l-4.254-11.187c3.385-1.285,6.314-2.423,8.721-3.4l4.495,11.093c-2.477,1.001-5.484,2.17-8.963,3.494ZM318.619,194.452l-6.411-3.342c-.44.156-.88.312-1.328.467l-.502-1.422-2.368-1.235c.386-.74.767-1.48,1.149-2.22l-2.267-6.404c3.112-1.102,6.104-2.142,8.971-3.12l13.715-4.694-6.415,13.002c-1.476,2.991-2.988,5.983-4.542,8.967Z"/>
</svg>