<?xml version="1.0" encoding="UTF-8"?>
<svg id="a" data-name="Layer 1" xmlns="http://www.w3.org/2000/svg" width="540" height="540" viewBox="0 0 540 540">
  <path d="M68.174,358.696c-18.324,0-31.828-4.916-41.011-10.149-15.788-8.994-23.794-21.698-26.018-30.583-7.343-29.367,21.882-53.582,52.139-63.655,81.592-27.163,153.182-13.115,228.968,1.76,42.052,8.256,85.538,16.787,133.381,18.949,22.621.994,91.102-5.238,108.518-45.993,3.752-8.786-.842-20.269-10.239-25.601-10.347-5.876-17.26-6.307-30.588-5.891l-.454-14.525c14.043-.449,24.286-.142,38.22,7.778,15.888,9.013,23.103,28.317,16.422,43.949-20.737,48.553-95.483,56.133-122.532,54.798-48.927-2.205-92.952-10.844-135.525-19.2-73.866-14.492-143.625-28.189-221.583-2.238-20.118,6.7-48.07,24.57-42.629,46.339,1.429,5.701,7.291,14.748,19.115,21.485,11.994,6.832,33.19,12.926,66.097,3.108l4.154,13.929c-13.797,4.116-25.914,5.739-36.436,5.739Z"/>
  <polygon points="481.566 181.304 459.773 185.504 452.511 206.478 467.046 223.251 488.838 219.051 496.1 198.077 481.566 181.304"/>
  <polygon points="102.512 355.568 80.72 351.367 73.457 330.394 87.992 313.621 109.784 317.816 117.047 338.795 102.512 355.568"/>
</svg>