<?xml version="1.0" encoding="UTF-8"?>
<svg id="a" data-name="Layer 1" xmlns="http://www.w3.org/2000/svg" width="540" height="540" viewBox="0 0 540 540">
  <path d="M270.374,312.475c-3.583,0-23.231-4.949-135.349-34.886l-11.402-3.04c-53.779-14.359-114.581-30.595-119.486-31.351h-.012c-.736-.111-1.247-.804-1.132-1.544.115-.736.812-1.263,1.54-1.132h.004c1.429.214,73.427,19.035,119.656,31.379l11.529,3.076c110.234,29.431,131.438,34.791,134.617,34.791h.055c1.473-.032,5.954-.127,264.214-66.079l4.719-1.204.673,2.621-4.719,1.204c-258.565,66.032-262.955,66.127-264.832,66.166h-.075Z"/>
  <path d="M270.224,298.903c-.083,0-.166-.008-.245-.024-9.177-1.69-82.553-21.279-131.109-34.241l-11.762-3.143C11.382,230.595,4.442,228.739,1.647,230.876l-1.647-2.146q3.836-2.961,127.804,30.152l11.762,3.139c48.102,12.839,120.582,32.19,130.658,34.15,11.449-2.241,108.804-26.695,261.043-65.569l4.877-1.247.673,2.621-4.877,1.247c-155.754,39.776-251.054,63.704-261.466,65.656-.083.016-.166.024-.249.024Z"/>
</svg>