<?xml version="1.0" encoding="UTF-8"?>
<svg id="a" data-name="Layer 1" xmlns="http://www.w3.org/2000/svg" width="540" height="540" viewBox="0 0 540 540">
  <path d="M503.976,284.889c-13.468,0-26.936-3.966-36.026-11.893-15.27-13.328-46.385-13.328-61.65,0-18.18,15.854-53.869,15.854-72.049,0-15.265-13.32-46.383-13.328-61.657,0-18.178,15.858-53.861,15.854-72.043,0-15.272-13.328-46.391-13.328-61.655,0-18.18,15.854-53.865,15.854-72.045,0-15.274-13.32-46.389-13.32-61.655,0l-5.197-5.959c18.178-15.85,53.865-15.858,72.047,0,15.27,13.324,46.383,13.328,61.652,0,18.178-15.85,53.867-15.858,72.049,0,15.267,13.324,46.383,13.32,61.65,0,18.184-15.858,53.873-15.85,72.049,0,15.267,13.324,46.387,13.32,61.655,0,18.178-15.85,53.863-15.858,72.045,0,15.267,13.324,46.387,13.328,61.655,0l5.197,5.959c-9.09,7.927-22.558,11.893-36.024,11.893Z"/>
  <path d="M459.911,265.764c0-5.884,4.773-10.653,10.653-10.653h0c5.88,0,10.653,4.769,10.653,10.653h0c0,5.88-4.773,10.653-10.653,10.653h0c-5.88,0-10.653-4.773-10.653-10.653ZM393.055,265.764c0-5.884,4.771-10.653,10.653-10.653h0c5.88,0,10.653,4.769,10.653,10.653h0c0,5.88-4.773,10.653-10.653,10.653h0c-5.882,0-10.653-4.773-10.653-10.653ZM326.199,265.764c0-5.884,4.771-10.653,10.653-10.653h0c5.88,0,10.653,4.769,10.653,10.653h0c0,5.88-4.773,10.653-10.653,10.653h0c-5.882,0-10.653-4.773-10.653-10.653ZM259.341,265.764c0-5.884,4.773-10.653,10.653-10.653h0c5.882,0,10.653,4.769,10.653,10.653h0c0,5.88-4.771,10.653-10.653,10.653h0c-5.88,0-10.653-4.773-10.653-10.653ZM192.485,265.764c0-5.884,4.773-10.653,10.653-10.653h0c5.882,0,10.653,4.769,10.653,10.653h0c0,5.88-4.771,10.653-10.653,10.653h0c-5.88,0-10.653-4.773-10.653-10.653ZM125.673,265.764c0-5.884,4.729-10.653,10.609-10.653h0c5.923,0,10.653,4.769,10.653,10.653h0c0,5.88-4.729,10.653-10.653,10.653h0c-5.88,0-10.609-4.773-10.609-10.653ZM58.817,265.764c0-5.884,4.729-10.653,10.653-10.653h0c5.88,0,10.609,4.769,10.609,10.653h0c0,5.88-4.729,10.653-10.609,10.653h0c-5.923,0-10.653-4.773-10.653-10.653Z"/>
</svg>