<?xml version="1.0" encoding="UTF-8"?>
<svg id="a" data-name="Layer 1" xmlns="http://www.w3.org/2000/svg" width="540" height="540" viewBox="0 0 540 540">
  <polygon points="0 275.035 16.8 274.218 18.743 290.926 1.943 291.743 0 275.035" fill="none" stroke="#000" stroke-miterlimit="300" stroke-width=".54"/>
  <polygon points="20.482 292.154 36.819 288.105 41.977 304.124 25.64 308.176 20.482 292.154" fill="none" stroke="#000" stroke-miterlimit="300" stroke-width=".54"/>
  <polygon points="43.913 305.021 59.473 298.593 66.958 313.672 51.398 320.1 43.913 305.021" fill="none" stroke="#000" stroke-miterlimit="300" stroke-width=".54"/>
  <polygon points="69.001 314.301 83.635 305.978 92.95 320.004 78.311 328.328 69.001 314.301" fill="none" stroke="#000" stroke-miterlimit="300" stroke-width=".54"/>
  <polygon points="95.056 320.374 108.554 310.313 119.52 323.091 106.021 333.152 95.056 320.374" fill="none" stroke="#000" stroke-miterlimit="300" stroke-width=".54"/>
  <polygon points="121.657 323.186 133.723 311.443 146.273 322.671 134.207 334.414 121.657 323.186" fill="none" stroke="#000" stroke-miterlimit="300" stroke-width=".54"/>
  <polygon points="148.409 322.522 159.248 309.639 172.851 319.561 162.012 332.448 148.409 322.522" fill="none" stroke="#000" stroke-miterlimit="300" stroke-width=".54"/>
  <polygon points="174.956 319.169 184.201 305.098 198.874 313.352 189.629 327.423 174.956 319.169" fill="none" stroke="#000" stroke-miterlimit="300" stroke-width=".54"/>
  <polygon points="200.914 312.712 208.229 297.55 223.858 303.799 216.544 318.966 200.914 312.712" fill="none" stroke="#000" stroke-miterlimit="300" stroke-width=".54"/>
  <polygon points="225.809 302.917 231.342 287.012 247.592 291.432 242.059 307.337 225.809 302.917" fill="none" stroke="#000" stroke-miterlimit="300" stroke-width=".54"/>
  <polygon points="249.464 290.385 253.962 274.153 270.469 277.511 265.967 293.743 249.464 290.385" fill="none" stroke="#000" stroke-miterlimit="300" stroke-width=".54"/>
  <polygon points="272.303 276.398 276.735 260.149 293.251 263.437 288.823 279.691 272.303 276.398" fill="none" stroke="#000" stroke-miterlimit="300" stroke-width=".54"/>
  <polygon points="295.105 262.353 300.21 246.304 316.577 250.283 311.472 266.331 295.105 262.353" fill="none" stroke="#000" stroke-miterlimit="300" stroke-width=".54"/>
  <polygon points="318.48 249.294 324.624 233.612 340.69 238.651 334.55 254.333 318.48 249.294" fill="none" stroke="#000" stroke-miterlimit="300" stroke-width=".54"/>
  <polygon points="342.657 237.793 349.91 222.591 365.575 228.775 358.321 243.977 342.657 237.793" fill="none" stroke="#000" stroke-miterlimit="300" stroke-width=".54"/>
  <polygon points="367.597 228.058 375.916 213.415 391.1 220.699 382.781 235.342 367.597 228.058" fill="none" stroke="#000" stroke-miterlimit="300" stroke-width=".54"/>
  <polygon points="393.188 220.259 403.747 207.163 417.534 216.809 406.97 229.911 393.188 220.259" fill="none" stroke="#000" stroke-miterlimit="300" stroke-width=".54"/>
  <polygon points="419.66 216.678 432.32 205.586 444.255 217.456 431.595 228.552 419.66 216.678" fill="none" stroke="#000" stroke-miterlimit="300" stroke-width=".54"/>
  <polygon points="446.378 217.674 460.523 208.547 470.598 222.036 456.453 231.159 446.378 217.674" fill="none" stroke="#000" stroke-miterlimit="300" stroke-width=".54"/>
  <polygon points="472.669 222.56 487.989 215.591 495.993 230.395 480.674 237.369 472.669 222.56" fill="none" stroke="#000" stroke-miterlimit="300" stroke-width=".54"/>
  <polygon points="497.953 231.24 514.216 226.921 519.631 242.856 503.364 247.171 497.953 231.24" fill="none" stroke="#000" stroke-miterlimit="300" stroke-width=".54"/>
  <polygon points="521.375 244.063 538.174 243.356 540 260.068 523.2 260.776 521.375 244.063" fill="none" stroke="#000" stroke-miterlimit="300" stroke-width=".54"/>
</svg>