<?xml version="1.0" encoding="UTF-8"?>
<svg id="a" data-name="Layer 1" xmlns="http://www.w3.org/2000/svg" width="540" height="540" viewBox="0 0 540 540">
  <path d="M.63,232.54c2.205-4.136,7.916-2.099,11.467-1.227,5.928,1.452,11.823,3.019,17.722,4.578,20.127,5.314,40.214,10.763,60.304,16.204,47.61,12.899,95.175,25.949,142.858,38.589,11.995,3.183,24.046,6.116,36.07,9.16,1.837.466-2.045.311-.826.049,1.411-.307,2.827-.597,4.234-.92,5.78-1.325,11.536-2.761,17.288-4.185,45.515-11.275,90.888-23.052,136.276-34.76,35.112-9.053,70.094-18.773,105.365-27.27.618-.147,1.227-.323,1.845-.479,6.791-1.71,9.687,8.153,2.9,9.863-29.287,7.376-58.463,15.161-87.701,22.713-47.279,12.211-94.557,24.439-141.93,36.335-11.598,2.913-23.265,6.378-35.071,8.505-7.556,1.362-17.108-2.802-24.23-4.647-44.583-11.565-88.969-23.825-133.4-35.881-35.632-9.671-71.194-20.512-107.276-28.636-.528-.119-1.203-.168-1.698-.372-.147-.057-.352-.016-.487-.086,1.358.728,5.093-1.215,5.711-2.369-3.142,5.887-12.555.716-9.421-5.163"/>
</svg>