<?xml version="1.0" encoding="UTF-8"?>
<svg id="a" data-name="Layer 1" xmlns="http://www.w3.org/2000/svg" width="540" height="540" viewBox="0 0 540 540">
  <path d="M98.312,288.76c-15.031,4.516-30.399,8.254-46.352,9.573-12.118.908-25.637.546-36.499-6.486-11.983-8.018-13.47-25.608-7.66-37.856,9.36-19.817,29.052-31.505,48.743-38.639,34.2-11.886,70.627-17.426,106.774-16.634,94.356,1.792,183.877,39.75,278.132,36.2,24.033-2.458,48.767-7.781,68.362-22.295,7.327-5.289,13.248-12.562,17.47-20.459,8.597-17.639-7.341-32.848-24.908-35.355-4.25-.976-13.301.386-15.166,5.047-1.261,3.154-7.37-10.09-10.771-10.292,15.832-.956,34.577-1.855,48.221,8.438,24.734,20.58,8.138,49.062-12.901,64.933-33.746,23.787-76.906,29.023-117.08,25.632-47.221-3.004-94.168-12.949-140.22-21.57-67.459-13.736-138.134-20.078-203.781,3.743-15.422,6.854-33.099,17.532-35.929,35.282-.522,6.298.497,12.828,5.752,17.054,8.747,6.578,20.31,7.554,31.317,7.935,15.518.246,31.133-1.748,46.497-4.25"/>
  <path d="M104.484,379.732c-14.717,6.279-30.993,10.177-47.936,9.061-25.352-.985-58.721-20.44-56.437-50.501,7.443-59.19,106.904-73.312,155.048-74.046,65.512-.551,128.262,17.441,191.344,28.438,44.468,7.39,91.289,16.344,135.221,1.903,17.373-5.458,33.191-14.548,42.165-29.984,9.481-15.069-5.477-34.306-22.319-35.07-7.491-.811-15.427.816-23.14,2.898,7.008-3.874,14.605-7.061,23.13-8.003,20.947-2.618,42.073,17.33,37.91,39.334-5.501,24.796-28.303,42.087-49.805,51.501-62.218,26.743-131.754,11.688-195.928,1.193-44.217-8.187-94.694-19.261-138.844-20.218-30.414-.927-60.591,2.512-90.057,10.505-13.582,3.391-26.574,9.669-36.557,18.919-17.392,15.557-7.781,34.712,9.365,45.459,11.534,7.298,39.494,11.104,35.871.241-3.004-9.013,21.763,9.993,30.969,8.37"/>
  <path d="M487.374,161.5c0,5.511-4.468,9.978-9.978,9.978s-9.978-4.468-9.978-9.978,4.468-9.978,9.978-9.978,9.978,4.468,9.978,9.978"/>
  <path d="M119.159,356.869c0,13.833-11.215,25.048-25.048,25.048s-25.048-11.215-25.048-25.048,11.215-25.048,25.048-25.048,25.048,11.215,25.048,25.048"/>
</svg>