<?xml version="1.0" encoding="iso-8859-1"?>
<!-- Generator: Adobe Illustrator 30.1.0, SVG Export Plug-In . SVG Version: 9.03 Build 0)  -->
<svg version="1.1" id="a" xmlns="http://www.w3.org/2000/svg" xmlns:xlink="http://www.w3.org/1999/xlink" x="0px" y="0px"
	 width="540px" height="540px" viewBox="0 0 540 540" enable-background="new 0 0 540 540" xml:space="preserve">
<path fill="#FFFFFF" d="M165.142,327.726c-4.212,0-7.964-3.111-8.486-7.372c-0.567-4.607,2.556-8.782,7.159-9.357
	c0.012-0.004,0.329-0.041,0.341-0.041c4.615-0.571,8.806,2.737,9.357,7.352c0.555,4.615-2.737,8.806-7.352,9.357
	c-0.341,0.041-0.682,0.062-1.019,0.062V327.726z M194.322,322.191c-3.768,0-7.2-2.552-8.157-6.374
	c-1.126-4.512,1.615-9.082,6.123-10.208l2.042,8.165l-1.985-8.178c4.409-1.147,9.053,1.451,10.29,5.852
	c1.233,4.405-1.184,8.967-5.564,10.298c-0.136,0.041-0.563,0.16-0.699,0.193c-0.686,0.173-1.373,0.251-2.051,0.251L194.322,322.191z
	 M222.85,312.156c-3.271,0-6.419-1.857-7.791-5.009c-1.853-4.266-0.041-9.16,4.22-11.013l3.357,7.717l-3.279-7.75l3.559,7.627
	l3.357,7.717C225.163,311.926,224.001,312.156,222.85,312.156L222.85,312.156z M249.306,298.517c-2.922,0-5.761-1.52-7.315-4.241
	c-2.305-4.035-0.904-9.176,3.131-11.482l4.175,7.307l-4.019-7.397c4.003-2.367,9.164-1.044,11.527,2.963
	c2.367,4.003,1.04,9.164-2.963,11.527c-0.037,0.021-0.333,0.193-0.37,0.214c-1.315,0.752-2.753,1.11-4.167,1.11L249.306,298.517z
	 M274.891,282.782c-2.819,0-5.572-1.414-7.163-3.986c-2.449-3.953-1.229-9.139,2.725-11.584l4.43,7.154l-4.323-7.22
	c3.904-2.499,9.119-1.377,11.63,2.519c2.507,3.896,1.422,9.074-2.466,11.597c-0.049,0.033-0.358,0.226-0.411,0.259
	c-1.381,0.855-2.909,1.262-4.422,1.262V282.782z M300.546,267.158c-2.922,0-5.761-1.52-7.315-4.241
	c-2.305-4.035-0.904-9.176,3.131-11.482l4.175,7.307l-4.019-7.397c4.003-2.367,9.164-1.04,11.527,2.963
	c2.367,4.003,1.04,9.164-2.963,11.527c-0.037,0.021-0.333,0.193-0.37,0.214c-1.315,0.752-2.753,1.11-4.167,1.11L300.546,267.158z
	 M327.265,252.968c-3.168,0-6.23-1.734-7.66-4.738c-1.977-4.142-0.407-9.037,3.694-11.087c0.095-0.045,0.46-0.222,0.555-0.263
	c4.208-1.927,9.213-0.058,11.141,4.179c1.923,4.229,0.053,9.217-4.179,11.141C329.674,252.722,328.461,252.968,327.265,252.968z
	 M354.881,241.125c-3.452,0-6.739-2.071-7.989-5.453c-1.586-4.303,0.419-9.032,4.689-10.701c0.099-0.041,0.485-0.185,0.584-0.218
	c4.409-1.541,9.184,0.797,10.713,5.182c1.529,4.389-0.793,9.189-5.182,10.713C356.767,240.973,355.818,241.125,354.881,241.125z"/>
<path fill="#FFFFFF" d="M507.512,249.829c-1.5,0-3.02-0.399-4.393-1.241l-1.027-0.625c-3.982-2.396-5.264-7.57-2.864-11.552
	c2.396-3.978,7.57-5.268,11.552-2.864l1.142,0.69c3.961,2.433,5.202,7.615,2.774,11.576
	C513.106,248.402,510.344,249.828,507.512,249.829L507.512,249.829z M478.577,236.337c-0.925,0-1.862-0.156-2.782-0.477
	l-1.105-0.378c-4.405-1.483-6.772-6.259-5.289-10.664c1.479-4.401,6.226-6.776,10.664-5.289l1.294,0.444
	c4.389,1.537,6.698,6.341,5.161,10.726C485.304,234.167,482.053,236.337,478.577,236.337L478.577,236.337z M447.568,228.653
	c-0.436,0-0.875-0.033-1.315-0.103l-1.184-0.177c-4.598-0.682-7.771-4.964-7.089-9.563c0.682-4.603,5.009-7.763,9.563-7.089
	l1.315,0.201c4.594,0.719,7.734,5.026,7.011,9.616c-0.649,4.15-4.229,7.113-8.301,7.113V228.653z M414.405,226.68
	c-4.5,0-8.231-3.555-8.404-8.091c-0.181-4.644,3.435-8.556,8.083-8.732l1.344-0.049c4.557-0.234,8.519,3.522,8.658,8.165
	c0.136,4.644-3.518,8.523-8.165,8.658l-1.188,0.041c-0.111,0.008-0.222,0.008-0.329,0.008H414.405z"/>
<path fill="#FFFFFF" d="M133.721,329.682c-4.574,0-8.326-3.666-8.412-8.256c-0.086-4.648,3.608-8.486,8.256-8.576l1.377-0.016
	l0.234,8.412v8.416l-1.29,0.021L133.721,329.682L133.721,329.682z M3.445,280.259l-0.953-1.027
	c-3.127-3.44-2.877-8.761,0.559-11.893c3.444-3.127,8.757-2.877,11.893,0.559l0.777,0.838L3.446,280.259H3.445z M531.589,269.722
	c-2.392,0-4.763-1.011-6.427-2.979c-0.008-0.008-0.329-0.374-0.337-0.382c-3.053-3.505-2.688-8.819,0.814-11.876
	c3.509-3.057,8.823-2.683,11.876,0.814l-6.345,5.531l6.456-5.404l0.382,0.444c3.004,3.551,2.56,8.86-0.986,11.86
	c-1.582,1.34-3.514,1.993-5.433,1.993L531.589,269.722z M383.486,231.521c-3.752,0-7.208-2.494-8.194-6.271
	c-1.163-4.446,1.381-8.979,5.802-10.212l0.703-0.205c4.471-1.278,9.131,1.311,10.405,5.778c1.278,4.471-1.311,9.127-5.778,10.405
	l-0.875,0.251c-0.69,0.173-1.381,0.255-2.063,0.255L383.486,231.521z"/>
<circle fill="#FFFFFF" cx="8.762" cy="273.617" r="8.762"/>
<circle fill="#FFFFFF" cx="133.784" cy="321.442" r="8.762"/>
<circle fill="#FFFFFF" cx="221.792" cy="304.197" r="8.762"/>
<ellipse transform="matrix(0.1602 -0.9871 0.9871 0.1602 -76.6115 489.804)" fill="#FFFFFF" cx="249.542" cy="289.925" rx="8.762" ry="8.762"/>
<circle fill="#FFFFFF" cx="275.111" cy="274.266" r="8.762"/>
<circle fill="#FFFFFF" cx="300.483" cy="258.608" r="8.762"/>
<circle fill="#FFFFFF" cx="194.24" cy="313.909" r="8.762"/>
<circle fill="#FFFFFF" cx="35.273" cy="294.792" r="8.762"/>
<circle fill="#FFFFFF" cx="67.283" cy="309.28" r="8.762"/>
<circle fill="#FFFFFF" cx="100.827" cy="318.356" r="8.762"/>
</svg>
