<?xml version="1.0" encoding="UTF-8"?>
<svg id="a" data-name="Layer 1" xmlns="http://www.w3.org/2000/svg" width="540" height="540" viewBox="0 0 540 540">
  <path d="M132.591,314.066c-38.773,0-91.464-15.384-118.881-45.322-.562-.613-.52-1.564.093-2.127.615-.555,1.568-.518,2.129.095,27.275,29.781,80.254,44.795,118.55,44.33,63.89-.864,94.048-19.836,132.227-43.857,28.724-18.075,61.265-38.549,113.736-53.991,47.327-13.932,122.578-.601,159.185,41.446.547.625.481,1.576-.146,2.123-.625.547-1.576.49-2.125-.148-35.848-41.174-109.642-54.197-156.062-40.532-52.071,15.327-84.426,35.681-112.971,53.645-38.592,24.28-69.064,43.454-133.802,44.326-.64.008-1.284.012-1.932.012Z"/>
  <path d="M132.587,324.595c-39.899,0-95.819-15.08-126.645-48.732-1.123-1.23-1.039-3.135.187-4.259s3.129-1.037,4.256.185c30.11,32.875,85.498,47.087,124.199,46.77,66.016-.889,98.514-21.338,136.146-45.017,28.294-17.808,60.364-37.985,111.833-53.135,50.615-14.903,119.941,3.041,151.392,39.162,1.092,1.255.963,3.16-.292,4.25-1.259,1.094-3.16.963-4.25-.292-29.563-33.953-97.391-51.386-145.148-37.343-50.666,14.915-82.363,34.858-110.327,52.456-38.399,24.165-71.562,45.034-139.271,45.943-.687.008-1.385.012-2.08.012Z"/>
  <path d="M132.612,332.121c-41.52,0-99.851-15.841-132.216-51.181-.562-.613-.52-1.564.095-2.127.611-.555,1.564-.518,2.127.095,31.746,34.661,89.11,50.197,129.98,50.197.716,0,1.42-.004,2.125-.012,68.972-.934,102.629-22.107,141.599-46.626,27.732-17.45,59.146-37.216,109.216-51.954,46.28-13.627,111.925,3.185,140.474,35.977.547.625.481,1.576-.146,2.123-.625.543-1.574.49-2.125-.148-27.87-32.007-92.056-48.387-137.351-35.064-49.669,14.623-80.898,34.27-108.449,51.604-39.37,24.769-73.358,46.157-143.177,47.099-.712.008-1.43.016-2.152.016Z"/>
</svg>