<?xml version="1.0" encoding="UTF-8"?>
<svg id="a" data-name="Layer 1" xmlns="http://www.w3.org/2000/svg" width="540" height="540" viewBox="0 0 540 540">
  <path d="M100.157,339.807c-23.206,6.736-49.818,8.639-70.868-5.29-14.216-9.408-22.505-25.114-12.411-41.058,14.942-23.61,48.392-31.149,73.74-36.293,28.744-5.831,58.199-6.794,87.401-4.619,59.372,4.419,117.124,20.68,175.936,29.114,44.255,6.346,89.864,10.951,132.688-5.149,21.439-8.06,44.163-22.51,51.848-45.394,4.375-13.053-1.163-27.878-11.457-36.507-13.389-11.228-32.249-11.559-48.821-11.535-7.826.015-7.841,12.182,0,12.167,14.426-.019,33.426-.638,43.783,11.399,8.824,10.264,5.981,21.974-1.251,32.064-12.021,16.762-32.653,25.595-51.965,30.725-47.142,12.513-97.315,3.582-144.374-4.823-57.314-10.235-114.505-25.036-173.074-25.313-30.453-.146-60.969,3.933-90.146,12.737-23.347,7.047-51.249,19.96-59.44,45.117-6.434,19.76,5.821,37.797,21.882,48.193,23.663,15.316,53.751,13.754,79.765,6.201,7.505-2.18,4.312-13.925-3.237-11.734"/>
  <path d="M115.721,337.334c0,7.568-6.132,13.701-13.701,13.701s-13.705-6.132-13.705-13.701,6.137-13.701,13.705-13.701,13.701,6.132,13.701,13.701"/>
  <path d="M492.258,196.593c0,7.568-6.132,13.701-13.701,13.701s-13.705-6.132-13.705-13.701,6.137-13.701,13.705-13.701,13.701,6.132,13.701,13.701"/>
</svg>