<?xml version="1.0" encoding="iso-8859-1"?>
<!-- Generator: Adobe Illustrator 30.1.0, SVG Export Plug-In . SVG Version: 9.03 Build 0)  -->
<svg version="1.1" id="a" xmlns="http://www.w3.org/2000/svg" xmlns:xlink="http://www.w3.org/1999/xlink" x="0px" y="0px"
	 width="540px" height="540px" viewBox="0 0 540 540" enable-background="new 0 0 540 540" xml:space="preserve">
<path fill="#FFFFFF" d="M101.265,336.042c-22.21,6.449-47.597,8.412-67.758-4.928c-5.819-3.85-9.866-8.273-13.076-13.856
	c-0.385-0.669-0.722-1.376-1.04-2.079c0.784,1.737,0.106,0.284-0.048-0.193c-0.491-1.511-0.967-3.022-1.169-4.606
	c-0.732-5.645,1.15-11.035,4.134-15.752c14.284-22.567,46.981-29.607,71.122-34.502c28.159-5.713,57.025-6.593,85.627-4.461
	c58.435,4.351,115.287,20.377,173.174,28.679c44.277,6.353,89.954,11.021,132.806-5.087c22.182-8.34,45.528-23.274,53.368-46.996
	c4.601-13.909-1.145-29.766-12.099-39.026c-13.87-11.719-33.14-12.311-50.403-12.282c-11.608,0.019-11.632,18.067,0,18.047
	c13.288-0.019,31.682-0.914,41.168,10.391c7.724,9.202,4.707,19.217-1.709,28.058c-11.507,15.863-31.249,24.131-49.585,29.001
	c-46.072,12.229-95.17,3.446-141.16-4.769c-56.939-10.169-113.767-24.862-171.942-25.137c-30.368-0.144-60.851,3.922-89.944,12.701
	c-24.188,7.301-52.42,20.743-60.875,46.712c-6.795,20.873,6.04,40.061,23.019,51.053c24.054,15.569,54.73,14.116,81.19,6.435
	c11.132-3.234,6.396-20.651-4.798-17.403"/>
<path fill="#FFFFFF" d="M120.935,333.761c0,11.108-9.005,20.107-20.107,20.107s-20.112-9-20.112-20.107s9.005-20.107,20.112-20.107
	S120.935,322.654,120.935,333.761"/>
<path fill="#FFFFFF" d="M493.652,201.262c0,11.108-9.005,20.107-20.107,20.107s-20.112-9-20.112-20.107s9.005-20.107,20.112-20.107
	S493.652,190.155,493.652,201.262"/>
<path fill="#FFFFFF" d="M216.928,285.413c-3.224,0-6.162-2.171-6.993-5.438c-0.982-3.868,1.354-7.797,5.217-8.779l129.773-33.002
	c3.873-0.982,7.797,1.354,8.779,5.217c0.982,3.868-1.354,7.797-5.217,8.779l-129.773,33.002
	C218.117,285.342,217.516,285.413,216.928,285.413L216.928,285.413z"/>
</svg>
