<?xml version="1.0" encoding="UTF-8"?>
<svg id="a" data-name="Layer 1" xmlns="http://www.w3.org/2000/svg" width="540" height="540" viewBox="0 0 540 540">
  <path d="M471.645,309.325h-65.745c4.705-11.839,7.378-25.196,7.378-39.319s-2.674-27.49-7.38-39.331h65.746c37.598,0,68.355-39.33,68.355-87.391s-30.757-87.402-68.355-87.402H195.075c-37.587,0-68.356,39.33-68.356,87.402,0,14.124,2.674,27.481,7.381,39.32h-65.745C30.758,182.604,0,221.935,0,270.006s30.758,87.39,68.355,87.39h65.745c-4.706,11.839-7.381,25.196-7.381,39.319,0,48.071,30.769,87.402,68.356,87.402h276.57c37.598,0,68.355-39.33,68.355-87.402s-30.757-87.39-68.355-87.39Z"/>
</svg>