<?xml version="1.0" encoding="UTF-8"?>
<svg id="a" data-name="Layer 1" xmlns="http://www.w3.org/2000/svg" width="540" height="540" viewBox="0 0 540 540">
  <path d="M476.516,61.247h-58.609v.222c-41.553.722-83.039,12.426-119.462,35.523-14.369,8.973-28.017,19.777-40.554,32.314-36.789,36.789-58.709,82.851-65.539,130.744,0,.1-.089.311-.089.411-2.654,13.659-9.283,26.695-19.877,37.3-13.936,13.925-32.17,21.032-50.525,21.165h-58.376c-34.913,0-63.484,35.956-63.484,79.908s28.572,79.897,63.484,79.897h57.843v.022c43.008,0,85.915-11.815,123.515-35.568,14.469-9.072,28.028-19.877,40.565-32.403,36.889-36.789,58.798-82.861,65.628-130.755.1-.2.1-.311.1-.511,2.654-13.659,9.272-26.695,19.766-37.2,14.169-14.158,32.614-21.198,51.07-21.198v-.078h54.545c34.912,0,63.484-35.945,63.484-79.897s-28.572-79.897-63.484-79.897"/>
</svg>