<?xml version="1.0" encoding="UTF-8"?>
<svg id="a" data-name="Layer 1" xmlns="http://www.w3.org/2000/svg" width="540" height="540" viewBox="0 0 540 540">
  <path d="M220.741,270.003c0,42.476-101.38,76.897-143.844,76.897S0,312.479,0,270.003s34.432-76.908,76.897-76.908,143.844,34.432,143.844,76.908"/>
  <path d="M319.259,270.003c0,42.476,101.368,76.897,143.844,76.897s76.897-34.421,76.897-76.897-34.421-76.908-76.897-76.908-143.844,34.432-143.844,76.908"/>
  <path d="M196.385,306.323s70.827-53.242,149.346,2.122v-75.921s-50.417,50.758-149.346,1.679v72.121Z"/>
  <path d="M270.001,248.115c-38.403,0-69.534-106.847-69.534-151.608S231.598,15.459,270.001,15.459s69.534,36.288,69.534,81.049-31.131,151.608-69.534,151.608"/>
  <path d="M270.001,316.438c-38.403,0-69.534,95.56-69.534,135.608s31.131,72.495,69.534,72.495,69.534-32.458,69.534-72.495-31.131-135.608-69.534-135.608"/>
  <path d="M237.161,200.601s48.137,66.777-1.917,140.792h68.649s-45.891-47.524-1.52-140.792h-65.211Z"/>
</svg>