<?xml version="1.0" encoding="UTF-8"?>
<svg id="a" data-name="Layer 1" xmlns="http://www.w3.org/2000/svg" width="540" height="540" viewBox="0 0 540 540">
  <path d="M270.002,0C121.123,0,0,121.12,0,270s121.123,270,270.002,270,269.998-121.12,269.998-270S418.88,0,270.002,0ZM432.382,252.781l-56.309-11.396c-39.042-7.901-69.557-38.416-77.459-77.459l-11.395-56.307c76.321,8.037,137.125,68.841,145.162,145.162ZM252.778,107.619l-11.396,56.307c-7.901,39.043-38.416,69.559-77.461,77.459l-56.304,11.396c8.037-76.319,68.842-137.123,145.16-145.162ZM107.618,287.224l56.304,11.394c39.045,7.902,69.56,38.417,77.461,77.459l11.395,56.303c-76.317-8.04-137.119-68.84-145.159-145.157ZM287.221,432.381l11.394-56.304c7.902-39.042,38.417-69.558,77.459-77.459l56.309-11.395c-8.039,76.319-68.842,137.121-145.161,145.158Z"/>
</svg>