<?xml version="1.0" encoding="UTF-8"?>
<svg id="a" data-name="Layer 1" xmlns="http://www.w3.org/2000/svg" width="540" height="540" viewBox="0 0 540 540">
  <path d="M310.078,327.698c0,85.624-69.413,155.047-155.048,155.047S.005,413.322.005,327.698c0-31.084,9.146-60.03,24.896-84.308,27.63-42.57,75.6-70.729,130.129-70.729,85.635,0,155.048,69.412,155.048,155.036"/>
  <path d="M540,246.89c0,21.758-17.64,39.409-39.42,39.409s-39.409-17.651-39.409-39.409c0-7.909,2.329-15.255,6.334-21.431,7.031-10.823,19.215-17.989,33.075-17.989,21.78,0,39.42,17.662,39.42,39.42"/>
  <path d="M540,241.812S493.189,42.743,264.341,58.1C0,75.863,0,336.785,0,336.785h310.084s-26.786-128.464,62.865-147.814c58.264-12.566,74.722,29.205,88.886,65.081l78.165-12.24Z"/>
</svg>