<?xml version="1.0" encoding="UTF-8"?>
<svg id="a" data-name="Layer 1" xmlns="http://www.w3.org/2000/svg" width="540" height="540" viewBox="0 0 540 540">
  <path d="M456.827,8.94c-84.031,0-106.768,162.367-185.908,162.367-78.215,0-101.379-158.484-183.027-162.192v-.168h-2.779c-.035,0-.068-.006-.103-.006-.014,0-.027.006-.042.006H0v522.107h84.969c.014,0,.027.006.042.006.035,0,.068-.006.103-.006h2.779v-.168c81.648-3.708,104.812-162.192,183.027-162.192,79.14,0,101.877,162.367,185.908,162.367,110.898,0,110.898-522.119,0-522.119Z"/>
</svg>