<?xml version="1.0" encoding="UTF-8"?>
<svg id="a" data-name="Layer 1" xmlns="http://www.w3.org/2000/svg" width="540" height="540" viewBox="0 0 540 540">
  <path d="M99.013,325.337c-.369,0-.738-.029-1.111-.095-7.874-1.384-15.726-3.203-23.339-5.4-3.377-.978-5.325-4.505-4.351-7.882s4.513-5.321,7.882-4.351c7.182,2.072,14.587,3.788,22.013,5.093,3.464.609,5.777,3.912,5.168,7.372-.543,3.091-3.232,5.263-6.262,5.263ZM54.366,312.382c-.821,0-1.658-.157-2.462-.497-7.683-3.228-14.943-6.871-21.586-10.824-3.021-1.798-4.011-5.706-2.213-8.727,1.807-3.025,5.719-4.003,8.727-2.213,6.133,3.655,12.863,7.028,20.003,10.028,3.241,1.363,4.766,5.093,3.402,8.334-1.024,2.437-3.386,3.899-5.872,3.899Z"/>
  <path d="M162.889,326.538c-3.187,0-5.938-2.387-6.315-5.632-.406-3.489,2.097-6.651,5.59-7.057,6.407-.742,12.689-1.74,18.677-2.967,3.46-.684,6.809,1.517,7.513,4.96s-1.517,6.809-4.96,7.513c-6.344,1.297-12.996,2.354-19.763,3.141-.249.029-.497.041-.742.041ZM200.968,318.673c-2.723,0-5.238-1.753-6.083-4.488-1.036-3.361.85-6.925,4.206-7.961,6.001-1.848,11.786-3.958,17.687-6.44,3.257-1.372,6.978.162,8.338,3.398,1.363,3.241-.157,6.974-3.398,8.338-6.295,2.648-12.465,4.894-18.872,6.871-.626.191-1.26.282-1.877.282ZM236.851,303.672c-2.287,0-4.5-1.239-5.64-3.406-1.633-3.112-.435-6.958,2.677-8.595,5.097-2.677,10.534-5.752,16.617-9.399,3.009-1.815,6.925-.829,8.731,2.184,1.811,3.017.829,6.925-2.184,8.731-6.291,3.775-11.935,6.962-17.247,9.755-.945.497-1.956.729-2.955.729ZM270.346,283.855c-2.113,0-4.181-1.053-5.391-2.975-1.873-2.975-.978-6.904,1.997-8.777l1.608-1.011c4.877-3.071,9.838-6.195,14.968-9.345,2.988-1.84,6.912-.903,8.756,2.093,1.84,2.996.903,6.916-2.093,8.756-5.089,3.125-10.012,6.224-14.852,9.27l-1.608,1.011c-1.053.663-2.225.978-3.386.978ZM303.614,263.608c-2.217,0-4.368-1.16-5.541-3.224-1.736-3.058-.663-6.941,2.395-8.678,5.988-3.398,11.686-6.456,17.421-9.357,3.133-1.583,6.966-.327,8.553,2.81s.327,6.966-2.81,8.553c-5.553,2.805-11.077,5.773-16.883,9.067-.99.564-2.072.829-3.137.829ZM338.374,246.074c-2.449,0-4.782-1.417-5.831-3.8-1.417-3.22.046-6.974,3.261-8.392,6.021-2.648,12.196-5.168,18.35-7.488,3.303-1.251,6.962.423,8.201,3.709,1.239,3.29-.419,6.962-3.709,8.201-5.942,2.242-11.902,4.674-17.711,7.231-.837.365-1.707.539-2.561.539Z"/>
  <path d="M510.545,248.565c-1.156,0-2.325-.315-3.377-.974-5.23-3.278-10.953-6.299-17.011-8.976-3.216-1.421-4.67-5.18-3.249-8.396,1.421-3.216,5.172-4.67,8.396-3.249,6.618,2.926,12.884,6.237,18.627,9.838,2.98,1.865,3.879,5.793,2.01,8.773-1.206,1.927-3.278,2.984-5.395,2.984ZM473.829,232.159c-.613,0-1.235-.087-1.852-.274-6.154-1.869-12.511-3.415-18.897-4.6-3.456-.638-5.739-3.962-5.097-7.418.642-3.452,3.933-5.744,7.418-5.097,6.85,1.268,13.667,2.93,20.272,4.931,3.365,1.019,5.263,4.575,4.243,7.94-.833,2.747-3.361,4.517-6.088,4.517ZM434.258,224.816c-.157,0-.311-.004-.468-.017-6.531-.472-13.062-.559-19.377-.249-3.647.079-6.502-2.536-6.672-6.042-.174-3.51,2.532-6.498,6.042-6.672,6.825-.336,13.874-.244,20.927.265,3.506.253,6.141,3.303,5.889,6.809-.24,3.348-3.033,5.905-6.34,5.905Z"/>
  <path d="M131.817,328.362c-3.228,0-6.61-.099-10.082-.303-3.51-.199-6.191-3.207-5.988-6.717.199-3.506,3.162-6.241,6.717-5.988,3.908.22,7.679.315,11.185.265,3.257-.05,6.436-.137,9.544-.274,3.531-.269,6.481,2.561,6.639,6.075.157,3.51-2.561,6.485-6.075,6.639-3.224.145-6.535.24-9.925.29-.663.008-1.334.012-2.014.012ZM14.695,288.376c-1.484,0-2.975-.518-4.181-1.571-3.174-2.772-6.15-5.669-8.843-8.611-2.375-2.594-2.196-6.618.398-8.992,2.594-2.366,6.618-2.2,8.992.398,2.375,2.594,5.006,5.155,7.824,7.617,2.648,2.312,2.922,6.332.609,8.98-1.26,1.442-3.025,2.18-4.799,2.18ZM533.639,267.897c-1.778,0-3.543-.738-4.799-2.18-2.026-2.321-4.227-4.575-6.543-6.701-2.59-2.379-2.764-6.402-.39-8.992,2.379-2.598,6.402-2.76,8.992-.39,2.665,2.445,5.201,5.039,7.53,7.712,2.312,2.652,2.039,6.672-.609,8.984-1.206,1.048-2.698,1.566-4.181,1.566ZM374.991,232.229c-2.694,0-5.192-1.72-6.059-4.417-1.077-3.348.767-6.933,4.111-8.006,3.087-.99,6.241-1.96,9.473-2.909,3.274-.97,6.755-1.823,10.339-2.536,3.423-.692,6.792,1.554,7.484,5.006.684,3.448-1.558,6.796-5.006,7.484-3.199.634-6.303,1.397-9.22,2.258-3.141.92-6.195,1.857-9.175,2.814-.651.211-1.305.307-1.948.307Z"/>
</svg>