<?xml version="1.0" encoding="UTF-8"?>
<svg id="a" data-name="Layer 1" xmlns="http://www.w3.org/2000/svg" width="540" height="540" viewBox="0 0 540 540">
  <path d="M539.983,270h-35.998v-8.605h35.998v8.605ZM467.986,270h-36v-8.605h36v8.605ZM395.989,270h-36v-8.605h36v8.605ZM323.991,270h-36v-8.605h36v8.605ZM251.992,270h-35.998v-8.605h35.998v8.605ZM179.994,270h-36v-8.605h36v8.605ZM107.997,270h-36v-8.605h36v8.605ZM36,270H0v-8.605h36v8.605Z"/>
  <path d="M540,278.605h-3.218v-17.21h3.218v17.21ZM531.345,278.605h-3.218v-17.21h3.218v17.21ZM522.683,278.605h-3.218v-17.21h3.218v17.21ZM514.028,278.605h-3.218v-17.21h3.218v17.21ZM505.37,278.605h-3.218v-17.21h3.218v17.21ZM496.713,278.605h-3.218v-17.21h3.218v17.21ZM488.053,278.605h-3.218v-17.21h3.218v17.21ZM479.395,278.605h-3.218v-17.21h3.218v17.21ZM470.74,278.605h-3.218v-17.21h3.218v17.21ZM462.078,278.605h-3.218v-17.21h3.218v17.21ZM453.421,278.605h-3.218v-17.21h3.218v17.21ZM444.765,278.605h-3.218v-17.21h3.218v17.21ZM436.108,278.605h-3.218v-17.21h3.218v17.21ZM427.448,278.605h-3.218v-17.21h3.218v17.21ZM418.791,278.605h-3.218v-17.21h3.218v17.21ZM410.135,278.605h-3.218v-17.21h3.218v17.21ZM401.478,278.605h-3.218v-17.21h3.218v17.21ZM392.816,278.605h-3.218v-17.21h3.218v17.21ZM384.161,278.605h-3.218v-17.21h3.218v17.21ZM375.503,278.605h-3.218v-17.21h3.218v17.21ZM366.844,278.605h-3.218v-17.21h3.218v17.21ZM358.186,278.605h-3.218v-17.21h3.218v17.21ZM349.529,278.605h-3.218v-17.21h3.218v17.21ZM340.873,278.605h-3.218v-17.21h3.218v17.21ZM332.212,278.605h-3.218v-17.21h3.218v17.21ZM323.556,278.605h-3.218v-17.21h3.218v17.21ZM314.899,278.605h-3.218v-17.21h3.218v17.21ZM306.241,278.605h-3.218v-17.21h3.218v17.21ZM297.582,278.605h-3.218v-17.21h3.218v17.21ZM288.924,278.605h-3.218v-17.21h3.218v17.21ZM280.269,278.605h-3.218v-17.21h3.218v17.21ZM271.607,278.605h-3.218v-17.21h3.218v17.21ZM262.95,278.605h-3.218v-17.21h3.218v17.21ZM254.294,278.605h-3.218v-17.21h3.218v17.21ZM245.637,278.605h-3.218v-17.21h3.218v17.21ZM236.977,278.605h-3.218v-17.21h3.218v17.21ZM228.32,278.605h-3.218v-17.21h3.218v17.21ZM219.664,278.605h-3.218v-17.21h3.218v17.21ZM211.007,278.605h-3.218v-17.21h3.218v17.21ZM202.345,278.605h-3.218v-17.21h3.218v17.21ZM193.69,278.605h-3.218v-17.21h3.218v17.21ZM185.032,278.605h-3.218v-17.21h3.218v17.21ZM176.373,278.605h-3.218v-17.21h3.218v17.21ZM167.715,278.605h-3.218v-17.21h3.218v17.21ZM159.058,278.605h-3.218v-17.21h3.218v17.21ZM150.402,278.605h-3.218v-17.21h3.218v17.21ZM141.74,278.605h-3.218v-17.21h3.218v17.21ZM133.085,278.605h-3.218v-17.21h3.218v17.21ZM124.428,278.605h-3.218v-17.21h3.218v17.21ZM115.772,278.605h-3.218v-17.21h3.218v17.21ZM107.111,278.605h-3.218v-17.21h3.218v17.21ZM98.453,278.605h-3.218v-17.21h3.218v17.21ZM89.798,278.605h-3.218v-17.21h3.218v17.21ZM81.136,278.605h-3.218v-17.21h3.218v17.21ZM72.481,278.605h-3.218v-17.21h3.218v17.21ZM63.823,278.605h-3.218v-17.21h3.218v17.21ZM55.166,278.605h-3.218v-17.21h3.218v17.21ZM46.506,278.605h-3.218v-17.21h3.218v17.21ZM37.848,278.605h-3.218v-17.21h3.218v17.21ZM29.193,278.605h-3.218v-17.21h3.218v17.21ZM20.536,278.605h-3.218v-17.21h3.218v17.21ZM11.874,278.605h-3.218v-17.21h3.218v17.21ZM3.218,278.605H0v-17.21h3.218v17.21Z"/>
</svg>