<?xml version="1.0" encoding="UTF-8"?>
<svg id="a" data-name="Layer 1" xmlns="http://www.w3.org/2000/svg" width="540" height="540" viewBox="0 0 540 540">
  <path d="M263.278,133.054l6.727-14.895,6.716,14.895,21.949,48.712,46.395-26.494,14.186-8.111-3.33,15.998-10.868,52.312,53.111,5.816,16.245,1.789-12.094,10.991-39.544,35.921,39.544,35.944,12.094,10.991-16.245,1.778-53.111,5.827,10.868,52.313,3.33,15.997-14.186-8.111-46.395-26.505-21.949,48.713-6.716,14.906-6.727-14.906-21.949-48.713-46.395,26.505-14.186,8.111,3.33-15.997,10.868-52.313-53.111-5.827-16.245-1.778,12.105-10.991,39.532-35.944-39.532-35.921-12.105-10.991,16.245-1.789,53.111-5.816-10.868-52.312-3.33-15.998,14.186,8.111,46.395,26.494,21.949-48.712ZM270.005,0l-50.974,113.108-107.73-61.538,25.245,121.466-123.334,13.522,91.822,83.43L13.213,353.43l123.334,13.534-25.245,121.466,107.73-61.538,50.974,113.108,50.974-113.108,107.73,61.538-25.256-121.466,123.334-13.534-91.823-83.441,91.823-83.43-123.334-13.522,25.256-121.466-107.73,61.538L270.005,0Z"/>
</svg>