<?xml version="1.0" encoding="UTF-8"?>
<svg id="a" data-name="Layer 1" xmlns="http://www.w3.org/2000/svg" width="540" height="540" viewBox="0 0 540 540">
  <path d="M476.682,61.795h-58.455v.221c-41.444.72-82.822,12.393-119.149,35.43-14.331,8.949-27.943,19.725-40.447,32.229-36.704,36.692-58.555,82.633-65.367,130.401,0,.099-.089.31-.089.41-2.647,13.623-9.259,26.625-19.825,37.202-13.833,13.822-31.908,20.899-50.127,21.098H0v159.407h122.427v.011c.144,0,.277-.011.421-.011h1.34v-.044c42.297-.321,84.438-12.061,121.43-35.419,14.431-9.048,27.954-19.825,40.458-32.318,36.792-36.692,58.644-82.644,65.455-130.412.1-.21.1-.31.1-.509,2.647-13.623,9.248-26.625,19.714-37.102,14.132-14.121,32.528-21.143,50.935-21.143v-.077h54.402c34.821,0,63.318-35.851,63.318-79.687s-28.497-79.687-63.318-79.687"/>
</svg>