<?xml version="1.0" encoding="UTF-8"?>
<svg id="a" data-name="Layer 1" xmlns="http://www.w3.org/2000/svg" width="540" height="540" viewBox="0 0 540 540">
  <path d="M131.793,316.347c-39.43,0-93.051-15.683-121.006-46.208-.53-.575-.49-1.473.087-1.999.573-.526,1.473-.493,1.999.087,27.862,30.422,81.894,45.699,120.851,45.277,64.869-.873,96.958-21.063,134.116-44.445,28.785-18.108,61.384-38.621,113.879-54.068,52.723-15.525,125.05,3.274,157.934,41.042.513.592.451,1.486-.139,1.999-.584.509-1.484.447-1.997-.137-32.237-37.028-103.221-55.43-155-40.19-52.118,15.339-84.541,35.736-113.146,53.733-37.543,23.625-69.945,44.014-135.61,44.896-.65.008-1.308.012-1.968.012Z"/>
  <path d="M131.832,323.449c-20.242,0-43.695-4.019-64.72-11.122-25.877-8.742-47.166-21.672-61.564-37.392-.53-.575-.49-1.473.087-1.999.573-.526,1.469-.493,1.999.087,14.079,15.368,34.958,28.033,60.384,36.622,21.434,7.243,45.413,11.283,65.798,10.96,66.878-.902,99.75-21.589,137.812-45.537,28.369-17.852,60.523-38.087,112.095-53.265,23.116-6.805,52.58-6.718,80.837.224,29.586,7.268,54.349,21.005,69.734,38.671.513.592.451,1.486-.139,1.999-.588.509-1.482.447-1.997-.137-15.004-17.235-39.25-30.653-68.273-37.785-27.787-6.825-56.715-6.925-79.363-.257-51.195,15.07-83.173,35.19-111.387,52.942-38.422,24.18-71.607,45.065-139.282,45.976-.668.008-1.345.012-2.022.012Z"/>
  <path d="M131.782,330.469c-41.307,0-99.289-15.72-131.409-50.79-.53-.575-.49-1.473.087-1.999.573-.526,1.478-.493,1.999.087,32.098,35.045,90.624,50.397,131.455,49.854,68.854-.923,102.496-22.098,141.453-46.613,28.017-17.628,59.732-37.578,110.336-52.47,47.183-13.899,114.148,3.291,143.299,36.771.513.592.451,1.486-.139,1.999-.588.509-1.482.447-1.997-.137-28.512-32.752-94.102-49.54-140.364-35.918-50.227,14.78-81.764,34.623-109.59,52.127-39.354,24.768-73.308,46.142-142.959,47.073-.716.008-1.442.017-2.169.017Z"/>
</svg>