<?xml version="1.0" encoding="UTF-8"?>
<svg id="a" data-name="Layer 1" xmlns="http://www.w3.org/2000/svg" width="540" height="540" viewBox="0 0 540 540">
  <path d="M63.315,478.204h58.455v-.214c41.445-.72,82.822-12.409,119.137-35.438,14.344-8.955,27.956-19.721,40.455-32.22,36.697-36.698,58.556-82.643,65.362-130.41,0-.101.101-.304.101-.405,2.644-13.624,9.247-26.629,19.822-37.204,13.826-13.826,31.905-20.903,50.13-21.105h123.221V61.808h-122.434v-.011c-.135,0-.281.011-.416.011h-1.339v.045c-42.3.315-84.443,12.06-121.433,35.415-14.434,9.045-27.956,19.823-40.455,32.321-36.787,36.697-58.646,82.642-65.452,130.41-.101.203-.101.304-.101.506-2.655,13.624-9.259,26.629-19.721,37.103-14.13,14.13-32.524,21.139-50.929,21.139v.079h-54.405c-34.83,0-63.315,35.865-63.315,79.695s28.485,79.684,63.315,79.684"/>
</svg>