<?xml version="1.0" encoding="UTF-8"?>
<svg id="a" data-name="Layer 1" xmlns="http://www.w3.org/2000/svg" width="540" height="540" viewBox="0 0 540 540">
  <path d="M4.977,308.796c38.685,2.196,79.303,4.205,115.824-11.562,17.361-7.495,32.96-18.359,49.077-28.25,16.935-10.401,34.701-18.672,53.8-23.837,21.399-5.783,43.503-7.624,65.541-5.85-.889-3.286-1.779-6.572-2.668-9.854-15.495,9.783-35.19,26.514-26.012,47.737,7.395,17.106,29.395,21.411,45.612,20.994,52.689-1.374,103.123-23.662,156.321-18.142,25.344,2.626,50.367,11.67,68.81,30.384,4.714,4.785,11.896-2.768,7.177-7.557-29.904-30.355-74.196-37.144-114.367-33.436-25.378,2.346-50.267,8.15-75.319,12.701-20.593,3.737-45.244,9.854-65.624,1.908-8.392-3.273-15.958-10.121-14.405-20.263,1.8-11.779,14.075-19.549,23.056-25.219,4.58-2.889,2.217-9.457-2.672-9.854-38.021-3.061-76.518,4.894-110.401,23.015-16.923,9.048-32.472,20.555-49.349,29.687-17.937,9.708-37.315,15.081-57.432,17.069-22.301,2.205-44.743.998-67.06-.271-6.585-.372-6.472,10.23.092,10.601"/>
</svg>