<?xml version="1.0" encoding="UTF-8"?>
<svg id="a" data-name="Layer 1" xmlns="http://www.w3.org/2000/svg" width="540" height="540" viewBox="0 0 540 540">
  <path d="M509.671,270.152c0,13.911-6.725,26.27-17.037,33.928l-8.918,5.162q-.157,0-.315.158l-389.445,224.81c-.461.315-1.091.63-1.563.945-5.938,2.969-12.663,4.847-19.691,4.847-23.458,0-42.373-19.072-42.373-42.373,0-14.698,7.344-27.518,18.6-35.176,1.406-.933,2.823-1.721,4.386-2.497l329.09-189.96L52.528,79.573s-.158-.157-.315-.157c-12.977-7.197-21.884-21.108-21.884-37.212C30.329,18.915,49.244,0,72.545,0c6.725,0,13.123,1.563,18.758,4.217l5.004,2.969s.158,0,.158.158l390.535,225.439c.472.315.944.472,1.406.787,12.662,7.343,21.265,20.951,21.265,36.582"/>
</svg>