<?xml version="1.0" encoding="UTF-8"?>
<svg id="a" data-name="Layer 1" xmlns="http://www.w3.org/2000/svg" width="540" height="540" viewBox="0 0 540 540">
  <path d="M514.473,382.071c-11.056-74.371-11.056-149.771,0-224.154l18.791-126.307c3.655-24.637-27.153-40.947-48.616-25.711l-109.998,78.072c-64.747,45.944-135.999,83.661-211.824,112.054l-8.539,3.199c.73-6.223,1.533-12.442,2.455-18.649l14.991-100.775c2.918-19.664-21.664-32.664-38.79-20.513l-87.763,62.287c-51.656,36.666-51.656,260.182,0,296.848l87.763,62.288c17.126,12.151,41.707-.85,38.79-20.524l-14.991-100.764c-.923-6.21-1.727-12.432-2.456-18.658l8.54,3.2c75.825,28.404,147.077,66.11,211.824,112.066l109.998,78.071c21.463,15.236,52.271-1.073,48.616-25.722l-18.791-126.307Z"/>
</svg>