<?xml version="1.0" encoding="UTF-8"?>
<svg id="a" data-name="Layer 1" xmlns="http://www.w3.org/2000/svg" width="540" height="540" viewBox="0 0 540 540">
  <path d="M288.801,43.098c-7.096,7.096-13.302,14.747-18.645,22.797-5.162-7.612-11.042-14.88-17.787-21.625-57.464-57.464-150.632-57.468-208.097-.003-57.468,57.468-57.467,150.639-.003,208.103,6.745,6.745,14.016,12.622,21.628,17.784-8.05,5.343-15.701,11.548-22.797,18.645-57.465,57.465-57.467,150.639-.004,208.102,57.465,57.465,150.641,57.465,208.106,0,7.096-7.096,13.302-14.747,18.645-22.797,5.16,7.61,11.039,14.882,17.781,21.625,57.464,57.464,150.636,57.467,208.104-.001s57.459-150.635-.004-208.099c-6.744-6.744-14.011-12.624-21.622-17.784,8.053-5.346,15.701-11.548,22.797-18.645,57.465-57.465,57.462-150.638-.003-208.103s-150.634-57.464-208.099.001Z"/>
</svg>