<?xml version="1.0" encoding="UTF-8"?>
<svg id="a" data-name="Layer 1" xmlns="http://www.w3.org/2000/svg" width="540" height="540" viewBox="0 0 540 540">
  <path d="M270.002,0C121.123,0,0,121.119,0,269.996s121.123,270.004,270.002,270.004,269.998-121.126,269.998-270.004S418.88,0,270.002,0ZM270.002,106.689c13.892,0,27.309,1.932,40.194,5.211l-162.871,265.547c-25.214-28.751-40.635-66.293-40.635-107.451,0-90.048,73.263-163.308,163.312-163.308ZM270.002,433.311c-10.261,0-20.266-1.067-30.007-2.886l159.328-259.77c21.221,27.559,33.988,61.948,33.988,99.341,0,90.056-73.26,163.315-163.309,163.315Z"/>
</svg>