<?xml version="1.0" encoding="UTF-8"?>
<svg id="a" data-name="Layer 1" xmlns="http://www.w3.org/2000/svg" width="540" height="540" viewBox="0 0 540 540">
  <path d="M138.292,334.376l-3.542-3.166,20.738-23.237,3.542,3.166-20.738,23.237ZM124.758,334.289l-3.377-3.34,21.908-22.166,3.377,3.34-21.908,22.166ZM151.449,333.76l-3.687-2.992,19.643-24.183,3.687,2.992-19.643,24.183ZM111.281,333.256l-3.162-3.546,23.166-20.674,3.162,3.546-23.166,20.674ZM164.812,332.52l-3.848-2.786,18.219-25.171,3.848,2.786-18.219,25.171ZM97.921,331.371l-2.922-3.745,24.448-19.091,2.922,3.745-24.448,19.091ZM178.133,330.582l-4.005-2.546,16.671-26.196,4.005,2.546-16.671,26.196ZM84.711,328.693l-2.691-3.91,25.576-17.574,2.691,3.91-25.576,17.574ZM191.351,327.883l-4.158-2.298,15.024-27.221,4.158,2.298-15.024,27.221ZM71.655,325.238l-2.447-4.067,26.622-16.02,2.447,4.067-26.622,16.02ZM204.383,324.341l-4.303-2.017,13.15-28.097,4.303,2.017-13.15,28.097ZM58.784,320.976l-2.191-4.216,27.624-14.363,2.191,4.216-27.624,14.363ZM217.136,319.98l-4.414-1.752,11.513-28.957,4.414,1.752-11.513,28.957ZM46.134,315.864l-1.905-4.348,28.593-12.532,1.905,4.348-28.593,12.532ZM229.533,314.847l-4.501-1.504,9.909-29.589,4.501,1.504-9.909,29.589ZM33.784,309.809l-1.583-4.48,29.534-10.44,1.583,4.48-29.534,10.44ZM241.674,308.949l-4.567-1.298,8.545-30.011,4.567,1.298-8.545,30.011ZM22.191,302.869l-1.277-4.571,29.825-8.316,1.277,4.571-29.825,8.316ZM253.249,302.642l-4.604-1.166,7.646-30.3,4.604,1.166-7.646,30.3ZM264.541,295.946l-4.625-1.083,7.119-30.395,4.625,1.083-7.119,30.395ZM10.862,294.619l-.847-4.67,30.519-5.543.847,4.67-30.519,5.543ZM275.496,289.159l-4.625-1.066,7.028-30.395,4.625,1.066-7.028,30.395ZM.347,285.067l-.347-4.737,30.982-2.269.347,4.737-30.982,2.269ZM286.249,282.426l-4.613-1.124,7.398-30.333,4.613,1.124-7.398,30.333ZM296.949,275.842l-4.592-1.215,7.991-30.151,4.592,1.215-7.991,30.151ZM307.673,269.506l-4.555-1.339,8.8-29.895,4.555,1.339-8.8,29.895ZM318.386,263.567l-4.505-1.496,9.858-29.651,4.505,1.496-9.858,29.651ZM329.421,257.875l-4.46-1.628,10.682-29.193,4.46,1.628-10.682,29.193ZM509.183,257.309l-.322-4.737,30.817-2.096.322,4.737-30.817,2.096ZM340.496,252.659l-4.398-1.794,11.788-28.837,4.396,1.794-11.786,28.837ZM499.423,250.981l-.876-4.67,30.515-5.729.876,4.67-30.515,5.729ZM351.722,247.84l-4.332-1.951,12.769-28.403,4.332,1.951-12.769,28.403ZM489.336,245.707l-1.323-4.563,29.858-8.655,1.323,4.563-29.858,8.655ZM363.237,243.351l-4.27-2.083,13.602-27.92,4.27,2.083-13.602,27.92ZM478.395,241.157l-1.724-4.422,28.976-11.296,1.724,4.422-28.976,11.296ZM374.731,239.367l-4.158-2.298,15.198-27.494,4.158,2.298-15.198,27.494ZM467.074,237.433l-2.038-4.29,28.285-13.425,2.038,4.29-28.285,13.425ZM386.463,235.751l-3.972-2.604,17.12-26.146,3.972,2.604-17.12,26.146ZM455.816,234.618l-2.385-4.108,26.851-15.586,2.385,4.108-26.851,15.586ZM397.468,233.06l-3.712-2.959,19.401-24.34,3.712,2.959-19.401,24.34ZM444.03,232.535l-2.641-3.943,25.942-17.372,2.641,3.943-25.942,17.372ZM409.111,231.469l-3.447-3.265,21.373-22.579,3.447,3.265-21.373,22.579ZM432.494,231.303l-2.947-3.728,24.276-19.203,2.947,3.728-24.276,19.203ZM420.574,230.931l-3.183-3.521,23.104-20.877,3.183,3.521-23.104,20.877Z"/>
</svg>