<?xml version="1.0" encoding="UTF-8"?>
<svg id="a" data-name="Layer 1" xmlns="http://www.w3.org/2000/svg" width="540" height="540" viewBox="0 0 540 540">
  <path d="M68.17,359.516c-18.324,0-31.832-4.921-41.016-10.153-15.788-8.999-23.789-21.698-26.008-30.588-7.348-29.358,21.873-53.578,52.135-63.651,81.578-27.163,153.163-13.115,228.964,1.765,42.052,8.251,85.538,16.787,133.386,18.944,22.687,1.013,91.107-5.247,108.523-45.998,3.747-8.777-.847-20.264-10.243-25.597-10.347-5.876-17.26-6.312-30.588-5.891l-.454-14.525c14.028-.459,24.286-.142,38.22,7.774,15.883,9.018,23.103,28.327,16.432,43.949-20.752,48.558-95.497,56.099-122.542,54.803-48.932-2.205-92.957-10.844-135.534-19.2-73.856-14.487-143.629-28.175-221.573-2.238-20.118,6.7-48.07,24.57-42.625,46.339,1.424,5.701,7.282,14.748,19.105,21.485,12.003,6.842,33.195,12.931,66.102,3.113l4.154,13.929c-13.797,4.116-25.914,5.739-36.436,5.739Z"/>
  <path d="M439.802,192.97c0,11.681,18.435,21.08,33.023,21.08s26.409-9.472,26.409-21.153-11.826-21.148-26.409-21.148-33.023,9.54-33.023,21.221"/>
  <path d="M142.452,347.176c0,11.681-18.435,21.075-33.023,21.075s-26.409-9.467-26.409-21.148,11.826-21.148,26.409-21.148,33.023,9.54,33.023,21.221"/>
</svg>