<?xml version="1.0" encoding="UTF-8"?>
<svg id="a" data-name="Layer 1" xmlns="http://www.w3.org/2000/svg" width="540" height="540" viewBox="0 0 540 540">
  <path d="M123.755,337.935l-21.929-24.534,3.734-3.337,21.929,24.534-3.734,3.337ZM137.9,337.63l-23.347-23.036,3.516-3.564,23.347,23.036-3.516,3.564ZM109.464,337.329l-20.302-25.95,3.943-3.085,20.302,25.95-3.943,3.085ZM151.788,336.711l-24.513-21.859,3.333-3.738,24.513,21.859-3.333,3.738ZM95.317,335.752l-18.668-27.131,4.122-2.841,18.67,27.131-4.124,2.841ZM165.851,335.068l-25.489-20.665,3.154-3.886,25.489,20.665-3.154,3.886ZM81.322,333.316l-16.986-28.168,4.287-2.588,16.986,28.168-4.287,2.588ZM179.85,332.659l-26.661-19.267,2.932-4.061,26.661,19.267-2.932,4.061ZM67.482,330.049l-15.171-29.101,4.44-2.318,15.171,29.101-4.44,2.318ZM193.699,329.399l-27.783-17.65,2.684-4.226,27.783,17.65-2.684,4.226ZM53.818,325.949l-13.165-29.946,4.584-2.013,13.165,29.946-4.584,2.013ZM207.303,325.26l-28.791-15.864,2.414-4.383,28.791,15.864-2.414,4.383ZM40.377,320.977l-10.914-30.704,4.719-1.673,10.914,30.704-4.719,1.673ZM220.773,320.193l-29.839-13.925,2.118-4.54,29.839,13.925-2.118,4.54ZM27.499,315.23l-8.91-31.724,4.819-1.351,8.91,31.724-4.819,1.351ZM233.613,314.398l-30.486-12.086,1.843-4.653,30.486,12.086-1.843,4.653ZM14.735,308.29l-5.947-32.303,4.923-.906,5.947,32.303-4.923.906ZM246.149,307.932l-31.074-10.37,1.586-4.749,31.074,10.37-1.586,4.749ZM258.139,301.092l-31.534-8.967,1.368-4.819,31.534,8.967-1.368,4.819ZM2.488,300.181l-2.488-32.652,4.993-.383,2.488,32.652-4.993.383ZM269.838,293.985l-31.752-8.008,1.224-4.854,31.752,8.008-1.224,4.854ZM281.257,286.853l-31.928-7.481,1.142-4.871,31.928,7.481-1.142,4.871ZM292.564,279.812l-31.976-7.398,1.128-4.88,31.976,7.398-1.128,4.88ZM303.779,273.024l-31.85-7.76,1.185-4.862,31.85,7.76-1.185,4.862ZM535.007,267.826l-2.381-32.765,4.993-.366,2.381,32.765-4.993.366ZM315.105,266.523l-31.719-8.4,1.281-4.836,31.719,8.4-1.281,4.836ZM326.536,260.393l-31.499-9.259,1.412-4.801,31.499,9.259-1.412,4.801ZM526.644,259.996l-6.113-32.246,4.919-.932,6.113,32.246-4.919.932ZM338.104,254.659l-31.072-10.326,1.577-4.749,31.072,10.326-1.577,4.749ZM516.751,252.838l-9.217-31.436,4.804-1.412,9.217,31.436-4.804,1.412ZM349.996,249.3l-30.913-11.302,1.721-4.706,30.913,11.302-1.721,4.706ZM506.436,246.89l-11.956-30.56,4.662-1.821,11.956,30.56-4.662,1.821ZM361.891,244.415l-30.401-12.418,1.891-4.636,30.401,12.418-1.891,4.636ZM495.123,241.644l-14.019-29.445,4.518-2.152,14.019,29.445-4.518,2.152ZM374.099,239.897l-29.97-13.468,2.052-4.566,29.97,13.468-2.052,4.566ZM483.716,237.462l-16.544-28.434,4.327-2.518,16.544,28.434-4.327,2.518ZM386.458,235.784l-29.623-14.422,2.192-4.505,29.623,14.422-2.192,4.505ZM471.612,233.993l-18.234-27.166,4.157-2.789,18.234,27.166-4.157,2.789ZM398.307,232.373l-28.488-15.716,2.418-4.383,28.488,15.716-2.418,4.383ZM459.63,231.462l-20.498-25.855,3.921-3.111,20.498,25.855-3.921,3.111ZM410.049,230.164l-27.301-17.764,2.732-4.2,27.301,17.764-2.732,4.2ZM447.139,229.732l-22.014-24.304,3.712-3.364,22.014,24.304-3.712,3.364ZM422.438,229.022l-25.659-20.395,3.115-3.921,25.659,20.395-3.115,3.921ZM434.599,228.891l-23.874-22.491,3.433-3.642,23.874,22.491-3.433,3.642Z"/>
</svg>