<?xml version="1.0" encoding="UTF-8"?>
<svg id="a" data-name="Layer 1" xmlns="http://www.w3.org/2000/svg" width="540" height="540" viewBox="0 0 540 540">
  <path d="M165.142,327.726c-4.212,0-7.964-3.111-8.486-7.372-.567-4.607,2.556-8.782,7.159-9.357.012-.004.329-.041.341-.041,4.615-.571,8.806,2.737,9.357,7.352.555,4.615-2.737,8.806-7.352,9.357-.341.041-.682.062-1.019.062ZM194.322,322.191c-3.768,0-7.2-2.552-8.157-6.374-1.126-4.512,1.615-9.082,6.123-10.208l2.042,8.165-1.985-8.178c4.409-1.147,9.053,1.451,10.29,5.852,1.233,4.405-1.184,8.967-5.564,10.298-.136.041-.563.16-.699.193-.686.173-1.373.251-2.051.251ZM222.85,312.156c-3.271,0-6.419-1.857-7.791-5.009-1.853-4.266-.041-9.16,4.22-11.013l3.357,7.717-3.279-7.75,3.559,7.627,3.357,7.717c-1.11.481-2.272.711-3.423.711ZM249.306,298.517c-2.922,0-5.761-1.52-7.315-4.241-2.305-4.035-.904-9.176,3.131-11.482l4.175,7.307-4.019-7.397c4.003-2.367,9.164-1.044,11.527,2.963,2.367,4.003,1.04,9.164-2.963,11.527-.037.021-.333.193-.37.214-1.315.752-2.753,1.11-4.167,1.11ZM274.891,282.782c-2.819,0-5.572-1.414-7.163-3.986-2.449-3.953-1.229-9.139,2.725-11.584l4.43,7.154-4.323-7.22c3.904-2.499,9.119-1.377,11.63,2.519,2.507,3.896,1.422,9.074-2.466,11.597-.049.033-.358.226-.411.259-1.381.855-2.909,1.262-4.422,1.262ZM300.546,267.158c-2.922,0-5.761-1.52-7.315-4.241-2.305-4.035-.904-9.176,3.131-11.482l4.175,7.307-4.019-7.397c4.003-2.367,9.164-1.04,11.527,2.963,2.367,4.003,1.04,9.164-2.963,11.527-.037.021-.333.193-.37.214-1.315.752-2.753,1.11-4.167,1.11ZM327.265,252.968c-3.168,0-6.23-1.734-7.66-4.738-1.977-4.142-.407-9.037,3.694-11.087.095-.045.46-.222.555-.263,4.208-1.927,9.213-.058,11.141,4.179,1.923,4.229.053,9.217-4.179,11.141-1.142.522-2.355.768-3.551.768ZM354.881,241.125c-3.452,0-6.739-2.071-7.989-5.453-1.586-4.303.419-9.032,4.689-10.701.099-.041.485-.185.584-.218,4.409-1.541,9.184.797,10.713,5.182,1.529,4.389-.793,9.189-5.182,10.713-.929.325-1.878.477-2.815.477Z"/>
  <path d="M507.512,249.829c-1.5,0-3.02-.399-4.393-1.241l-1.027-.625c-3.982-2.396-5.264-7.57-2.864-11.552,2.396-3.978,7.57-5.268,11.552-2.864l1.142.69c3.961,2.433,5.202,7.615,2.774,11.576-1.59,2.589-4.352,4.015-7.183,4.015ZM478.577,236.337c-.925,0-1.862-.156-2.782-.477l-1.105-.378c-4.405-1.483-6.772-6.259-5.289-10.664,1.479-4.401,6.226-6.776,10.664-5.289l1.294.444c4.389,1.537,6.698,6.341,5.161,10.726-1.216,3.468-4.467,5.638-7.943,5.638ZM447.568,228.653c-.436,0-.875-.033-1.315-.103l-1.184-.177c-4.598-.682-7.771-4.964-7.089-9.563.682-4.603,5.009-7.763,9.563-7.089l1.315.201c4.594.719,7.734,5.026,7.011,9.616-.649,4.15-4.229,7.113-8.301,7.113ZM414.405,226.68c-4.5,0-8.231-3.555-8.404-8.091-.181-4.644,3.435-8.556,8.083-8.732l1.344-.049c4.557-.234,8.519,3.522,8.658,8.165.136,4.644-3.518,8.523-8.165,8.658l-1.188.041c-.111.008-.222.008-.329.008Z"/>
  <path d="M133.721,329.682c-4.574,0-8.326-3.666-8.412-8.256-.086-4.648,3.608-8.486,8.256-8.576l1.377-.016.234,8.412v8.416l-1.29.021h-.164ZM3.445,280.259l-.953-1.027c-3.127-3.44-2.877-8.761.559-11.893,3.444-3.127,8.757-2.877,11.893.559l.777.838-12.275,11.523ZM531.589,269.722c-2.392,0-4.763-1.011-6.427-2.979-.008-.008-.329-.374-.337-.382-3.053-3.505-2.688-8.819.814-11.876,3.509-3.057,8.823-2.683,11.876.814l-6.345,5.531,6.456-5.404.382.444c3.004,3.551,2.56,8.86-.986,11.86-1.582,1.34-3.514,1.993-5.433,1.993ZM383.486,231.521c-3.752,0-7.208-2.494-8.194-6.271-1.163-4.446,1.381-8.979,5.802-10.212l.703-.205c4.471-1.278,9.131,1.311,10.405,5.778,1.278,4.471-1.311,9.127-5.778,10.405l-.875.251c-.69.173-1.381.255-2.063.255Z"/>
  <circle cx="8.762" cy="273.617" r="8.762"/>
  <circle cx="133.784" cy="321.442" r="8.762"/>
  <circle cx="221.792" cy="304.197" r="8.762"/>
  <circle cx="249.542" cy="289.925" r="8.762"/>
  <circle cx="275.111" cy="274.266" r="8.762"/>
  <circle cx="300.483" cy="258.608" r="8.762"/>
  <circle cx="194.24" cy="313.909" r="8.762"/>
  <circle cx="35.273" cy="294.792" r="8.762"/>
  <circle cx="67.283" cy="309.28" r="8.762"/>
  <circle cx="100.827" cy="318.356" r="8.762"/>
</svg>