<?xml version="1.0" encoding="UTF-8"?>
<svg id="a" data-name="Layer 1" xmlns="http://www.w3.org/2000/svg" width="540" height="540" viewBox="0 0 540 540">
  <path d="M133.311,314.488c-38.809,0-91.551-15.408-119.016-45.394-.653-.715-.606-1.827.111-2.48.712-.653,1.821-.612,2.48.107,27.228,29.727,80.248,44.761,118.32,44.244,63.779-.862,93.876-19.802,131.98-43.78,28.656-18.028,61.132-38.462,113.505-53.878,47.227-13.901,122.34-.604,158.876,41.357.637.731.561,1.84-.172,2.476-.733.641-1.842.563-2.476-.168-35.649-40.951-109.049-53.886-155.238-40.298-51.905,15.276-84.164,35.575-112.624,53.484-38.573,24.27-69.037,43.443-133.802,44.314-.643.012-1.296.016-1.944.016Z"/>
  <path d="M133.33,331.998c-41.437,0-99.648-15.806-131.95-51.073-1.961-2.144-1.815-5.466.326-7.429,2.144-1.959,5.468-1.811,7.427.324,30.68,33.497,86.94,48.252,126.213,47.652,66.729-.899,99.496-21.514,137.434-45.386,28.085-17.675,59.904-37.698,110.877-52.699,48.661-14.311,117.811,3.523,147.982,38.183,1.905,2.189,1.675,5.507-.513,7.412-2.191,1.905-5.513,1.68-7.416-.513-27.812-31.945-91.876-48.297-137.083-34.996-49.574,14.591-80.741,34.203-108.238,51.504-39.289,24.721-73.216,46.067-142.898,47.008-.715.008-1.437.012-2.16.012Z"/>
</svg>