<?xml version="1.0" encoding="UTF-8"?>
<svg id="a" data-name="Layer 1" xmlns="http://www.w3.org/2000/svg" width="540" height="540" viewBox="0 0 540 540">
  <path d="M4.703,304.868c-2.011,0-3.753-1.493-4.018-3.535-.285-2.217,1.279-4.252,3.5-4.537.004-.004.008-.004.012-.004,4.236-.582,64.415-16.651,117.512-30.824l13.31-3.555c117.959-31.497,132.005-34.886,135.327-34.886h.099c1.722.04,6.299.135,264.822,66.165l4.735,1.211-2.011,7.854-4.731-1.211c-210.423-53.742-259.244-65.512-263.147-65.919-3.702.245-47.728,11.849-133.003,34.617l-13.31,3.555c-70.931,18.939-114.325,30.483-118.565,31.034h0s-.008.004-.012.004c-.174.02-.348.032-.519.032Z"/>
  <path d="M3.595,312.473c-2.031,0-2.712-.523-3.595-1.204l1.647-2.146c2.775,2.118,9.711.285,125.457-30.614l11.762-3.147c48.556-12.961,121.93-32.55,131.106-34.24.158-.032.329-.032.495,0,10.349,1.944,108.093,26.489,261.461,65.658l4.873,1.243-.665,2.621-4.877-1.243c-152.156-38.856-249.513-63.311-261.041-65.571-10.075,1.96-82.555,21.311-130.655,34.149l-11.762,3.143c-95.453,25.487-117.405,31.35-124.206,31.35Z"/>
</svg>