<?xml version="1.0" encoding="UTF-8"?>
<svg id="a" data-name="Layer 1" xmlns="http://www.w3.org/2000/svg" width="540" height="540" viewBox="0 0 540 540">
  <path d="M0,299.77c31.461,5.546,64.16,4.21,93.465-8.082,17.432-7.773,33.38-18.429,50.41-27.437,45.316-25.623,97.772-40.794,150.236-38.431,7.156.249,8.242,10.495,1.403,12.296-6.315,1.627-13.158,4.497-18.543,8.183-10.542,6.391-15.437,19.439-6.805,28.806,14.942,14.135,39.022,13.255,58.293,9.696,71.045-14.147,159.843-38.312,211.542,29.618-30.814-34.859-77.681-42.907-121.848-36.334-29.694,3.589-58.153,12.178-87.678,17.943-15.225,3.073-31.989,4.751-47.18-.017-23.865-5.647-40.147-29.284-23.117-51.433,8.335-10.026,20.031-15.314,32.302-18.607,0,.004,1.162,12.355,1.162,12.355-50.714-2.43-100.316,11.265-145.333,34.432-17.28,8.454-34.018,18.615-52.223,25.56-30.717,10.943-65.035,10.267-96.085,1.45"/>
</svg>