<?xml version="1.0" encoding="UTF-8"?>
<svg id="a" data-name="Layer 1" xmlns="http://www.w3.org/2000/svg" width="540" height="540" xmlns:xlink="http://www.w3.org/1999/xlink" viewBox="0 0 540 540">
  <defs>
    <clipPath id="b">
      <rect x="16.052" width="507.897" height="540" fill="none"/>
    </clipPath>
  </defs>
  <rect x="16.085" width="255.443" height="412.295"/>
  <rect x="268.472" width="255.443" height="412.295"/>
  <g clip-path="url(#b)">
    <path d="M271.554,412.241c0,70.555-57.195,127.761-127.761,127.761s-127.738-57.206-127.738-127.761c0-25.608,7.54-49.464,20.518-69.465,22.765-35.081,62.285-58.285,107.22-58.285,70.566,0,127.761,57.195,127.761,127.75"/>
    <path d="M523.948,412.241c0,70.555-57.195,127.761-127.761,127.761s-127.738-57.206-127.738-127.761c0-25.608,7.54-49.464,20.518-69.465,22.765-35.081,62.285-58.285,107.22-58.285,70.566,0,127.761,57.195,127.761,127.75"/>
  </g>
</svg>