<?xml version="1.0" encoding="UTF-8"?>
<svg id="a" data-name="Layer 1" xmlns="http://www.w3.org/2000/svg" width="540" height="540" viewBox="0 0 540 540">
  <path d="M132.812,317.101c-39.388,0-92.976-15.691-120.946-46.227-1.122-1.229-1.037-3.131.187-4.253,1.222-1.122,3.129-1.035,4.25.185,27.239,29.739,80.338,44.732,118.38,44.267,63.821-.859,93.931-19.812,132.052-43.807,28.669-18.037,61.16-38.478,113.565-53.902,53.041-15.621,125.842,3.34,158.96,41.383,1.091,1.253.959,3.155-.294,4.244-1.253,1.097-3.155.957-4.242-.292-31.75-36.469-101.684-54.58-152.727-39.567-51.603,15.19-83.721,35.397-112.057,53.228-38.922,24.496-69.663,43.844-135.175,44.727-.645.008-1.3.012-1.954.012Z"/>
  <path d="M132.771,323.103c-39.511,0-94.86-14.906-125.334-48.179-.561-.612-.52-1.561.092-2.124.616-.555,1.563-.518,2.126.095,29.856,32.594,84.239,47.201,123.099,47.201.692,0,1.374-.004,2.054-.012,66.343-.892,98.962-21.419,136.734-45.184,28.171-17.729,60.104-37.821,111.303-52.891,49.177-14.471,119.087,3.591,149.615,38.655.546.625.481,1.574-.146,2.12-.622.542-1.574.489-2.122-.148-29.856-34.291-98.317-51.918-146.496-37.743-50.8,14.952-82.544,34.928-110.553,52.55-38.154,24.011-71.103,44.744-138.293,45.648-.688.008-1.383.012-2.079.012Z"/>
  <path d="M132.819,332.122c-41.461,0-99.71-15.819-132.029-51.104-1.122-1.229-1.037-3.131.187-4.253,1.222-1.126,3.125-1.035,4.25.185,31.629,34.534,89.443,49.481,129.661,49.14,68.036-.912,101.315-21.858,139.848-46.108,27.853-17.524,59.41-37.381,109.807-52.209,47.203-13.904,114.212,3.32,143.388,36.835,1.091,1.253.959,3.155-.294,4.244-1.251,1.093-3.153.961-4.242-.292-27.83-31.97-91.912-48.318-137.155-35.019-49.596,14.594-80.777,34.217-108.287,51.527-39.314,24.739-73.256,46.1-142.983,47.037-.711.008-1.43.016-2.151.016Z"/>
</svg>